<?xml version="1.0" encoding="utf-8" ?><svg xmlns="http://www.w3.org/2000/svg" xmlns:xlink="http://www.w3.org/1999/xlink" width="160" height="160" viewBox="0 0 160 160"><path fill="#EBAD60" d="M81.0358 4.57189C81.9699 3.80893 82.145 3.51898 83.4342 3.44512C84.6701 3.37432 86.993 5.24483 87.2763 6.39675C94.1419 8.45149 101.913 2.43992 110.804 9.84464C111.296 10.1885 111.937 10.5802 112.271 11.0577C112.594 11.2737 113.336 11.8256 113.666 11.8651C115.93 11.5277 117.613 11.8627 118.757 14.1024C119.052 15.2937 119.153 16.266 118.914 17.4945C119.74 18.7465 125.397 21.0075 127.51 22.4542C128.832 23.3892 130.274 24.7558 131.39 25.9488C133.046 27.5541 134.186 28.6091 135.961 30.0262C138.475 32.0336 143.238 35.176 145.034 37.6791C149.505 41.5513 153.736 52.9686 154.675 58.7213C154.902 59.9144 155.534 62.9446 155.455 64.0397C155.786 66.5513 156.29 71.1978 156.301 73.744C157.051 74.3623 158.06 75.1321 158.648 75.8636C159.214 76.749 159.559 77.2008 159.797 78.2416C154.823 86.0944 157.276 97.0594 152.91 106.532C150.711 111.23 148.093 114.821 145.818 118.9C138.949 131.218 139.544 134.044 126.241 140.021C119.309 143.431 118.54 148.519 111.245 147.405C108.879 147.044 107.142 146.335 105.155 145.948C102.314 147.592 100.283 150.712 96.991 152.536C92.9219 154.79 91.3702 153.695 87.0345 154.424C83.0987 155.085 79.7282 157.499 75.557 156.252C72.2707 155.27 67.2416 153.285 65.3248 150.29C64.5682 149.108 65.4156 147.026 65.8269 145.695C63.0081 144.942 58.7301 144.074 56.193 143.409C52.8532 142.534 46.8062 136.003 43.8638 133.388C40.2045 130.136 35.4158 123.026 33.2576 118.705C32.3975 117.026 31.9384 113.767 31.001 112.316C26.6794 105.629 22.973 101.307 22.7913 92.8356C22.9915 91.0646 23.1147 90.153 23.5576 88.3948C24.1514 95.1219 25.7039 100.888 29.1239 106.719C29.902 108.046 31.2161 111.33 32.8748 111.59C35.4683 110.519 42.4054 101.82 45.0495 100.221C46.734 99.6703 51.4652 94.663 52.4745 93.0891L52.5593 92.9337C53.2465 92.4964 60.5534 91.0698 61.2175 91.3527C65.2478 93.0692 69.8744 94.0202 74.4538 93.8131C74.8458 93.7954 75.0257 93.2432 75.1835 92.9432C75.3302 91.2397 76.5894 90.5108 77.969 89.8945C79.543 89.2979 81.0647 88.8865 82.6795 88.4304L82.9949 88.4985C83.6134 88.3815 84.5134 88.294 85.1609 88.2095C87.1784 89.1913 87.6881 89.5518 89.0039 91.3623C89.2041 90.9523 89.4235 90.3686 89.6024 89.9329C89.6405 88.9867 90.277 88.4119 90.8908 87.6713C93.2227 85.9424 94.4717 85.5528 97.517 85.9189C98.4097 86.0263 98.864 86.4075 99.8289 86.2594L100.013 85.647C98.1728 84.9399 97.1171 84.821 95.1624 84.7314C94.2223 84.2844 93.9071 83.9997 93.1205 83.3522C92.4801 82.1321 92.4623 81.1003 92.5304 79.7767C92.5609 78.8111 91.2516 74.478 91.124 71.7087C91.0828 71.1055 91.0969 70.98 90.715 70.4991C89.3383 70.0247 88.6321 70.5651 87.2577 71.2015C83.8715 72.6861 74.6273 74.4405 70.6995 74.2689C67.0201 74.1081 63.7583 72.8702 61.2413 70.1036C55.5951 66.3071 56.5951 56.2183 54.1141 50.6866C52.2005 46.4198 51.0891 43.3192 50.7003 38.6105L51.1056 33.7369C51.4305 32.3679 51.648 30.4421 51.8508 29.0109C52.192 27.813 52.4313 26.4528 52.6748 25.2201C52.9922 24.2593 53.2417 23.6546 53.6602 22.7334L54.1105 21.15C57.6672 15.777 60.1373 12.6333 66.7241 10.3934C69.7505 8.8566 76.3038 8.04075 79.5009 6.54093C79.5939 6.2358 80.7548 4.90865 81.0358 4.57189Z"/><defs><linearGradient id="gradient_0" gradientUnits="userSpaceOnUse" x1="36.83688" y1="130.42403" x2="64.853043" y2="87.968979"><stop offset="0" stop-color="#E9472D"/><stop offset="1" stop-color="#F49077"/></linearGradient></defs><path fill="url(#gradient_0)" d="M23.5576 88.3948C24.1514 95.1219 25.7039 100.888 29.1239 106.719C29.902 108.046 31.2161 111.33 32.8748 111.59C35.4683 110.519 42.4054 101.82 45.0495 100.221C46.734 99.6703 51.4652 94.663 52.4745 93.0891L52.5593 92.9337C53.2465 92.4964 60.5534 91.0698 61.2175 91.3527C65.2478 93.0692 69.8744 94.0202 74.4538 93.8131C74.8458 93.7954 75.0257 93.2432 75.1835 92.9432L75.4397 94.38C74.8589 98.1569 75.257 100.369 76.7358 103.956C76.4833 106.679 75.6365 112.123 75.7514 114.573C69.232 115.58 71.2997 120.151 71.8698 124.792C72.3483 128.688 71.5365 130.646 75.0169 133.275C73.423 137.413 70.007 140.325 67.4587 143.875C67.1184 144.349 66.431 145.506 66.0915 145.816L65.8269 145.695C63.0081 144.942 58.7301 144.074 56.193 143.409C52.8532 142.534 46.8062 136.003 43.8638 133.388C40.2045 130.136 35.4158 123.026 33.2576 118.705C32.3975 117.026 31.9384 113.767 31.001 112.316C26.6794 105.629 22.973 101.307 22.7913 92.8356C22.9915 91.0646 23.1147 90.153 23.5576 88.3948Z"/><path fill="#C56B2A" d="M126.015 139.611C127.083 138.8 131.316 136.927 133.007 135.866C139.489 131.8 140.529 127.055 143.999 121.049C144.401 120.355 144.373 120.196 144.215 119.553C141.684 117.951 140.083 122.378 136.038 119.069L135.553 119.251L135.321 119.06C135.251 117.8 135.903 116.774 136.106 115.674C137.05 110.552 141.082 109.699 144.282 106.783C145.638 105.546 147.359 101.705 148.939 100.067C149.172 101.105 148.696 100.997 148.635 101.544C148.47 103.027 149.717 109.018 150.276 110.269C150.526 108.985 151.937 108.099 151.907 106.948C151.894 106.46 151.739 106.408 151.835 105.763L152.271 106.158L152.712 106.054L152.91 106.532C150.711 111.23 148.093 114.821 145.818 118.9C138.949 131.218 139.544 134.044 126.241 140.021C119.309 143.431 118.54 148.519 111.245 147.405C108.879 147.044 107.142 146.335 105.155 145.948C102.314 147.592 100.283 150.712 96.991 152.536C92.9219 154.79 91.3702 153.695 87.0345 154.424C83.0987 155.085 79.7282 157.499 75.557 156.252C72.2707 155.27 67.2416 153.285 65.3248 150.29C64.5682 149.108 65.4156 147.026 65.8269 145.695L66.0915 145.816C66.539 146.899 64.9748 149.163 65.7151 150.042C68.4529 153.293 73.4035 155.003 77.3238 156.161L77.4385 155.647L77.8475 155.419C77.8655 154.91 78.0427 154.716 78.1209 154.35C78.3217 153.046 76.6569 153.849 75.9784 152.432C74.9249 150.231 72.7402 148.624 73.1872 146.093C73.3563 148.096 75.6397 151.75 77.2141 152.941L77.6376 152.851L78.068 151.741C78.8593 151.936 77.9117 152.693 78.8892 153.605C81.0888 154.085 83.3901 151.839 83.2818 149.699C83.2163 148.404 82.1913 148.658 81.9578 147.817L82.5379 147.821L82.6442 147.272C82.2236 146.469 80.7655 146.35 79.7131 145.413C81.3308 145.048 83.3614 146.894 84.9057 147.37C86.8391 147.965 88.2738 145.06 89.5773 144.038C90.9761 142.942 92.5675 142.116 94.0987 141.256C95.1861 142.355 94.6316 141.227 95.7121 141.645C96.1779 139.778 99.491 134.532 100.674 132.781C101.335 131.804 102.508 132.189 103.084 130.443C102.937 129.228 102.403 128.802 101.775 127.753L102.165 127.655C103.189 128.222 103.811 130.393 104.208 131.523C104.9 132.046 104.848 131.461 105.02 131.605C105.517 132.022 106.142 132.576 106.719 132.906C108.024 133.652 107.707 133.034 108.281 133.244L108.279 133.855L107.977 134.058C107.227 133.475 105.455 132.568 104.496 132.438C104.026 133.722 104.405 141.558 105.061 143.131C105.488 144.156 106.181 144.258 107.069 144.714L107.135 144.997C106.599 145.022 106.406 145.015 105.887 145.182C106.681 145.566 107.502 145.89 108.345 146.152C109.038 146.374 110.968 147.003 111.64 146.656L111.57 146.135C112.439 145.069 113.636 139.475 115.023 139.282C119.381 138.673 121.503 135.567 124.337 132.629C124.303 132.664 124.151 126.376 124.688 125.393L124.959 125.534C125.628 127.744 123.499 130.27 125.637 132.857C126.539 132.08 126.08 133.026 127.107 132.366C128.248 131.634 129.99 129.57 131.395 129.65C131.534 129.773 131.692 129.913 131.801 130.062C136.275 136.131 123.338 137.002 123.021 140.908C123.452 141.081 124.888 140.016 126.015 139.611Z"/><path fill="#F7D38B" d="M81.0358 4.57189C81.9699 3.80893 82.145 3.51898 83.4342 3.44512C84.6701 3.37432 86.993 5.24483 87.2763 6.39675C94.1419 8.45149 101.913 2.43992 110.804 9.84464L109.138 9.73435L109.088 9.9222C108.176 11.0773 108.313 12.1883 107.934 12.5833L107.632 12.287C107.15 12.5853 102.687 14.6018 102.253 14.4061C100.77 13.7369 99.1184 13.0234 97.5962 12.4291C95.6424 13.1738 96.2169 16.7918 93.796 17.4769C93.679 17.51 93.0305 18.0198 92.8968 18.1293L93.1654 18.5907C94.1261 19.0486 94.3342 19.1116 95.2225 19.299C96.6077 19.5914 102.376 19.4562 102.326 21.4517C102.295 22.6773 102.444 24.1139 102.659 25.4593L102.379 25.4704C101.592 24.1909 102.399 21.2942 101.044 20.7959C98.445 19.8399 95.3749 20.3475 92.8331 19.0095C92.455 18.8105 92.1381 18.7392 91.7209 18.8847C89.7674 19.5658 88.4294 21.4566 86.5774 22.3747C84.4471 23.4954 82.1388 23.7398 79.7796 23.4037C80.5982 23.1386 81.0887 23.3455 81.8649 23.2253C83.5087 22.9705 85.3522 22.2762 86.8065 21.4787C87.7016 20.9878 88.6174 20.4951 88.9151 19.4827C88.7069 19.3596 88.5924 19.2673 88.4061 19.1214L88.62 18.7241C88.2737 18.4836 87.1893 18.1308 86.676 17.9047C85.9642 17.1167 86.3059 15.8406 86.0127 14.839C85.8483 14.2773 85.2561 14.3249 84.5441 14.0081C85.4857 13.8113 85.2109 13.4902 86.2003 13.8483C86.6507 14.0114 87.4752 14.1496 87.9517 14.2281C90.2657 13.2869 89.7372 10.429 88.3725 8.94524L87.8409 9.19712C81.9527 13.9114 80.8451 8.99229 77.3078 8.76964C77.3255 8.47787 77.35 8.25651 77.3918 7.96723C75.828 8.34732 76.8014 8.99185 75.1546 9.32804C71.902 9.99205 69.0073 10.6504 66.1752 12.3192C64.5893 13.2537 57.4314 19.6447 56.6795 19.6988C56.7321 18.9547 57.1983 18.3555 57.6007 17.7189C55.6288 18.2696 55.4485 21.3886 54.0139 22.8067L53.6602 22.7334L54.1105 21.15C57.6672 15.777 60.1373 12.6333 66.7241 10.3934C69.7505 8.8566 76.3038 8.04075 79.5009 6.54093C79.5939 6.2358 80.7548 4.90865 81.0358 4.57189Z"/><path fill="#F7D38B" d="M81.0358 4.57189C81.9699 3.80893 82.145 3.51898 83.4342 3.44512C84.6701 3.37432 86.993 5.24483 87.2763 6.39675L87.8512 7.42508C85.7896 7.79546 84.3215 8.91584 82.0356 8.45141C81.1508 8.27166 80.2385 7.69347 79.4458 7.51116L79.5009 6.54093C79.5939 6.2358 80.7548 4.90865 81.0358 4.57189Z"/><path fill="#F8D6A3" d="M66.7241 10.3934C65.8367 12.0306 59.4427 17.7555 57.6007 17.7189C55.6288 18.2696 55.4485 21.3886 54.0139 22.8067L53.6602 22.7334L54.1105 21.15C57.6672 15.777 60.1373 12.6333 66.7241 10.3934Z"/><path fill="#F9AF57" d="M87.8512 7.42508C88.0697 8.38499 88.1176 8.04461 87.784 8.90436C85.6502 10.1966 84.0678 10.9916 81.4124 10.556C79.7998 10.2915 79.1058 9.07222 79.4458 7.51116C80.2385 7.69347 81.1508 8.27166 82.0356 8.45141C84.3215 8.91584 85.7896 7.79546 87.8512 7.42508Z"/><path fill="#C56B2A" d="M61.2413 70.1036L61.5331 69.9686C63.0844 69.8015 65.4783 72.5069 67.3555 72.7619C71.3493 73.3046 75.9365 73.1051 79.8481 72.1677C79.296 68.9054 79.8442 69.807 81.3562 68.0217C82.7986 66.3187 81.1153 67.2409 83.6249 65.9271C83.4137 64.2382 82.4941 61.9169 81.7153 60.414L81.9421 60.2718C83.3332 62.2255 83.5723 62.8514 83.9823 65.2181C84.6346 67.3389 87.264 69.5868 87.2577 71.2015C83.8715 72.6861 74.6273 74.4405 70.6995 74.2689C67.0201 74.1081 63.7583 72.8702 61.2413 70.1036Z"/><path fill="#E68D46" d="M94.1428 79.6105C96.3527 79.5676 97.7042 83.1999 99.7374 83.2845C100.155 83.0952 100.223 82.839 100.416 82.4308C102.113 81.1972 105.05 82.7126 106.885 82.0743C110.403 80.8501 112.489 79.6387 116.225 78.6248C113.352 79.9772 110.358 81.3063 107.386 82.453C106.357 82.85 104.293 82.9424 103.889 83.351C104.883 84.0742 106.924 85.3783 107.507 86.2787L107.218 86.4792C106.792 86.3832 106.044 86.1252 105.865 85.6883C105.159 85.1913 104.664 84.8426 103.89 84.4294C102.83 84.9731 103.51 85.2474 103.131 86.0171C102.549 86.503 101.98 87.1193 101.249 87.1249L100.363 86.8363C100.295 86.2948 100.301 86.1181 100.013 85.647C98.1728 84.9399 97.1171 84.821 95.1624 84.7314C94.2223 84.2844 93.9071 83.9997 93.1205 83.3522C92.4801 82.1321 92.4623 81.1003 92.5304 79.7767C93.411 79.278 93.1559 79.2459 93.9476 79.3999L94.1428 79.6105Z"/><path fill="#F9AF57" d="M92.5304 79.7767C93.411 79.278 93.1559 79.2459 93.9476 79.3999L94.1428 79.6105C94.3677 80.7541 95.592 81.7986 96.3946 83.1027C95.7556 83.645 95.3339 83.9032 95.1624 84.7314C94.2223 84.2844 93.9071 83.9997 93.1205 83.3522C92.4801 82.1321 92.4623 81.1003 92.5304 79.7767Z"/><path fill="#C56B2A" d="M100.363 86.8363C100.385 85.3301 100.294 83.3497 102.688 83.5299C104.076 83.6343 105.036 84.6388 105.865 85.6883C105.159 85.1913 104.664 84.8426 103.89 84.4294C102.83 84.9731 103.51 85.2474 103.131 86.0171C102.549 86.503 101.98 87.1193 101.249 87.1249L100.363 86.8363Z"/><path fill="#F7D38B" d="M76.7358 103.956C76.9008 103.448 77.2033 102.983 77.2585 102.744C77.4364 101.977 77.2235 100.089 77.7009 99.5136C78.5856 102.079 74.5641 114.617 76.7195 115.684C77.8302 116.234 80.2258 115.521 81.3401 115.109C82.754 114.586 84.0644 113.795 85.4591 113.216C84.3714 115.136 81.5757 114.546 80.8677 116.68C81.3827 117.202 81.9104 117.754 82.4482 118.249C81.9617 118.36 81.5043 118.406 81.1388 118.722C81.7222 121.223 81.7945 123.332 78.517 123.084C76.5574 122.279 75.6262 119.525 74.8212 117.631C75.3198 116.509 75.7129 115.802 75.7514 114.573C75.6365 112.123 76.4833 106.679 76.7358 103.956Z"/><path fill="#F9AF57" d="M81.1388 118.722C80.1645 117.36 78.6852 117.573 77.2936 116.219L77.4743 115.949C77.5855 115.936 77.6968 115.925 77.8083 115.915C78.9549 115.815 79.9464 115.903 80.8677 116.68C81.3827 117.202 81.9104 117.754 82.4482 118.249C81.9617 118.36 81.5043 118.406 81.1388 118.722Z"/><path fill="#E68D46" d="M152.712 106.054C153.159 104.022 153.916 102.152 154.378 100.054C155.368 95.5487 155.416 90.7674 155.907 86.1773C155.953 85.0067 155.378 83.1908 155.465 82.0702C155.724 78.9195 157.364 77.493 155.499 74.6757C156.104 75.5897 155.011 63.709 155.01 64.2617L155.455 64.0397C155.786 66.5513 156.29 71.1978 156.301 73.744C157.051 74.3623 158.06 75.1321 158.648 75.8636C159.214 76.749 159.559 77.2008 159.797 78.2416C154.823 86.0944 157.276 97.0594 152.91 106.532L152.712 106.054Z"/><path fill="#F8D6A3" d="M112.271 11.0577C112.594 11.2737 113.336 11.8256 113.666 11.8651C115.93 11.5277 117.613 11.8627 118.757 14.1024C119.052 15.2937 119.153 16.266 118.914 17.4945C119.74 18.7465 125.397 21.0075 127.51 22.4542C127.305 22.4851 127.099 22.51 126.892 22.529C121.852 22.9888 112.718 16.2369 112.271 11.0577Z"/><path fill="#F9AF57" d="M113.666 11.8651C115.93 11.5277 117.613 11.8627 118.757 14.1024C119.052 15.2937 119.153 16.266 118.914 17.4945C117.042 16.5638 114.393 13.8728 113.666 11.8651Z"/><path fill="#E68D46" d="M83.9823 65.2181C85.4577 66.3309 84.9371 66.6777 86.5115 68.3428C86.8299 66.8213 84.6012 64.7348 85.8507 63.8242C86.537 65.0788 87.9782 69.3401 89.8452 68.7154C89.8953 68.1348 90.1726 64.7315 90.2915 64.4708C90.905 63.125 93.9805 56.9334 95.0465 56.44L95.2572 56.7091C94.9969 58.1804 93.6708 58.7165 93.2322 59.9952C91.9983 63.5926 90.471 63.9388 90.8989 67.9469L91.1815 68.1591C94.3965 66.6494 95.4012 63.8007 97.6981 62.3857C95.5501 65.1549 94.0476 66.993 92.7145 70.317C92.35 71.2259 91.5328 70.7205 91.124 71.7087C91.0828 71.1055 91.0969 70.98 90.715 70.4991C89.3383 70.0247 88.6321 70.5651 87.2577 71.2015C87.264 69.5868 84.6346 67.3389 83.9823 65.2181Z"/><path fill="#F7D38B" d="M110.804 9.84464C111.296 10.1885 111.937 10.5802 112.271 11.0577C112.718 16.2369 121.852 22.9888 126.892 22.529C127.099 22.51 127.305 22.4851 127.51 22.4542C128.832 23.3892 130.274 24.7558 131.39 25.9488L131.333 28.0537C130.26 27.0171 130.563 26.8548 129.981 25.4732C127.091 23.7384 123.364 22.5337 120.337 20.9552C119.922 20.7387 117.903 21.816 116.992 21.7709C116.705 21.0692 116.842 20.136 117.268 19.5324L118.016 19.8274C114.793 17.0911 114.171 16.3765 112.175 12.6554C111.7 11.7705 109.737 10.8335 109.088 9.9222L109.138 9.73435L110.804 9.84464Z"/><path fill="#F8D6A3" d="M131.39 25.9488C133.046 27.5541 134.186 28.6091 135.961 30.0262C138.475 32.0336 143.238 35.176 145.034 37.6791C141.719 35.8435 138.319 33.6999 135.126 31.6255C134.206 31.0283 132.772 28.8908 131.333 28.0537L131.39 25.9488Z"/><path fill="#F7D38B" d="M77.969 89.8945C78.4133 90.5101 78.484 90.6219 78.6717 91.3521L79.5502 91.2573L79.8352 91.5243C79.5767 92.8226 77.3786 94.751 77.2021 95.5828C76.4327 95.6885 76.3061 95.8285 75.6566 95.5631L75.5896 94.7391L75.4397 94.38L75.1835 92.9432C75.3302 91.2397 76.5894 90.5108 77.969 89.8945Z"/><path fill="#F9AF57" d="M77.969 89.8945C78.4133 90.5101 78.484 90.6219 78.6717 91.3521C76.9826 92.8703 76.8451 93.418 75.5896 94.7391L75.4397 94.38L75.1835 92.9432C75.3302 91.2397 76.5894 90.5108 77.969 89.8945Z"/><path fill="#E68D46" d="M81.1388 118.722C81.5043 118.406 81.9617 118.36 82.4482 118.249C84.5561 122.112 81.9074 126.485 77.7393 124.218L77.6744 123.891L77.9138 123.727L79.1824 124.482L79.4343 124.384L79.3281 123.672C78.7697 123.315 78.6874 123.296 78.0273 123.222L78.517 123.084C81.7945 123.332 81.7222 121.223 81.1388 118.722Z"/><path fill="#E68D46" d="M103.131 86.0171C104.042 86.8573 105.62 86.9839 106.061 87.4236L105.535 87.7438C106.033 88.0265 108.097 88.5389 108.796 88.3663C109.612 87.332 109.07 84.8015 110.159 84.0725C111.485 85.3162 109.485 88.3575 108.685 89.5516C105.805 88.3844 103.39 88.9231 101.249 87.1249C101.98 87.1193 102.549 86.503 103.131 86.0171Z"/><path fill="#F9AF57" d="M82.6795 88.4304L82.9949 88.4985C82.5876 89.8687 78.208 95.4038 77.2021 95.5828C77.3786 94.751 79.5767 92.8226 79.8352 91.5243L79.5502 91.2573L78.6717 91.3521C78.484 90.6219 78.4133 90.5101 77.969 89.8945C79.543 89.2979 81.0647 88.8865 82.6795 88.4304Z"/><path fill="#E68D46" d="M89.6024 89.9329C91.4557 89.8906 92.5793 91.7042 91.9876 93.0527C90.8388 93.472 89.6842 92.6257 88.6442 92.069C88.0014 92.4744 88.1582 92.7803 87.8463 93.6869C87.6375 92.7821 87.6384 93.1294 87.953 92.2125C88.2546 91.9289 88.6391 91.5089 89.0039 91.3623C89.2041 90.9523 89.4235 90.3686 89.6024 89.9329Z"/><path fill="#F7D38B" d="M114.651 29.1053L115.241 29.3886C116.695 31.8243 113.278 34.6893 117.563 34.9733C119.891 35.1276 121.128 33.6237 123.118 33.1966L123.471 33.4697C123.478 33.5273 123.485 33.5848 123.492 33.6425C123.658 35.1302 123.519 35.6343 122.656 36.7187L122.553 36.8363C121.656 37.8486 120.391 38.4585 119.04 38.5293C114.118 38.7762 110.964 33.1866 114.651 29.1053Z"/><path fill="#F9AF57" d="M113.498 32.4606C114.963 33.0892 115.424 34.7954 116.606 35.2861C117.307 35.5771 120.103 35.296 121 35.2294C121.779 34.562 122.124 34.0053 122.989 33.9302C123.302 34.5694 122.973 35.3104 122.768 36.0221C121.309 37.6532 120.823 37.735 118.699 38.3264C115.89 37.4384 112.856 35.979 113.498 32.4606Z"/><path fill="#C56B2A" d="M92.0468 105.879C95.3127 108.13 88.7503 115.543 86.3949 116.203C85.7654 116.38 85.2834 116.524 84.6362 116.635L84.3667 116.389L84.5453 115.769C85.043 115.387 85.2218 115.321 85.7485 115.036C88.0272 113.801 89.7674 111.368 90.5922 108.946C90.7933 108.356 90.7937 107.577 90.9701 106.998C91.2372 106.121 91.2826 106.261 92.0468 105.879Z"/><path fill="#E68D46" d="M90.1758 137.91C89.8351 138.052 89.7869 138.046 89.4154 138.078C91.4073 136.087 89.3661 135.164 90.9901 133.667C93.8361 132.808 92.4338 134.676 94.685 131.986C94.4006 132.815 94.0365 133.483 93.6397 134.26C94.2973 134.411 95.1751 134.043 95.8234 133.84C94.9395 135.537 93.3252 138.895 91.0308 138.463L90.1758 137.91Z"/><path fill="#C56B2A" d="M93.6397 134.26C94.2973 134.411 95.1751 134.043 95.8234 133.84C94.9395 135.537 93.3252 138.895 91.0308 138.463L90.1758 137.91C90.7324 137.166 91.9425 136.442 92.5777 135.698C92.9897 135.216 93.2243 134.734 93.6397 134.26Z"/><path fill="#F7D38B" d="M80.1744 105.904C80.6946 106.105 80.7837 106.147 81.2339 106.472C82.1655 108.309 81.4448 110.519 79.6762 111.489L79.1061 111.462C76.8363 109.94 78.9663 107.548 80.1744 105.904Z"/><path fill="#C56B2A" d="M127.342 123.082C129.57 123.521 129.587 126.193 128.596 127.811C126.684 126.486 125.95 125.073 127.342 123.082Z"/><path fill="#F7D38B" d="M98.2172 23.6094C103.108 23.7225 98.7649 28.0947 97.0052 27.7012L96.8993 27.3901C97.7438 27.1443 98.6062 26.4717 99.3485 25.9645C98.7805 25.2525 99.0389 25.2087 98.8101 24.3679L98.3331 24.2921C97.5121 24.7954 96.8136 26.0249 96.2561 26.8651L96.0272 26.6953L96.026 26.0683C96.4783 25.067 97.3982 24.3531 98.2172 23.6094Z"/><defs><linearGradient id="gradient_1" gradientUnits="userSpaceOnUse" x1="50.07616" y1="65.985542" x2="13.935108" y2="65.267868"><stop offset="0" stop-color="#D6352D"/><stop offset="1" stop-color="#E6685F"/></linearGradient></defs><path fill="url(#gradient_1)" d="M10.9214 22.6933C13.8263 17.6232 16.8708 16.8747 22.0678 19.6909C24.1977 20.8745 25.6391 21.6794 27.3837 23.4642C28.2759 24.3832 29.2678 25.3538 30.0188 26.38C30.7847 27.3662 31.6677 28.4516 32.3282 29.4955C32.8231 30.2897 34.281 32.5187 34.6001 33.2595C34.964 33.9627 35.9153 35.9349 36.2849 36.5054C41.6956 48.4757 45.012 61.2052 45.2402 74.4099C45.2597 75.5374 45.2768 79.1645 44.9638 80.1107C45.2791 81.0611 46.1171 82.3154 46.8385 82.9895L47.687 84.5219C48.241 85.6108 48.6856 86.5718 49.1733 87.6923C49.5527 89.4826 49.8744 92.4652 51.2805 93.531C51.9321 93.5436 51.8242 93.4746 52.4745 93.0891C51.4652 94.663 46.734 99.6703 45.0495 100.221C42.4054 101.82 35.4683 110.519 32.8748 111.59C31.2161 111.33 29.902 108.046 29.1239 106.719C25.7039 100.888 24.1514 95.1219 23.5576 88.3948L23.4095 87.5372L22.7036 87.5935L22.1141 86.5431C11.8428 75.7573 1.84394 50.974 0.669605 36.1877C0.517325 35.9019 0.405305 33.915 0.369168 33.45C0.645151 26.367 2.5293 19.9813 10.9214 22.6933Z"/><defs><linearGradient id="gradient_2" gradientUnits="userSpaceOnUse" x1="3.2864125" y1="73.938393" x2="27.032776" y2="36.671986"><stop offset="0" stop-color="#C50E0B"/><stop offset="1" stop-color="#DA3835"/></linearGradient></defs><path fill="url(#gradient_2)" d="M0.369168 33.45C0.645151 26.367 2.5293 19.9813 10.9214 22.6933C10.685 23.7513 10.5207 24.4307 10.162 25.4526C9.74505 27.397 9.32075 29.6817 9.24675 31.6762C8.11174 36.5457 10.6752 52.3619 12.4211 57.5811C12.438 57.6046 12.4549 57.6282 12.4719 57.6518C13.9821 64.5165 17.0991 71.406 20.2903 77.6324C21.6326 80.2514 23.6372 82.585 24.9046 85.2385C25.0565 85.5566 24.023 87.2622 23.75 87.5417L23.4095 87.5372L22.7036 87.5935L22.1141 86.5431C11.8428 75.7573 1.84394 50.974 0.669605 36.1877C0.517325 35.9019 0.405305 33.915 0.369168 33.45Z"/><defs><linearGradient id="gradient_3" gradientUnits="userSpaceOnUse" x1="4.876543" y1="75.089493" x2="17.16765" y2="48.565144"><stop offset="0" stop-color="#D83C2A"/><stop offset="1" stop-color="#DE6865"/></linearGradient></defs><path fill="url(#gradient_3)" d="M0.669605 36.1877C1.791 37.2229 2.26563 41.1607 2.56984 42.7502C2.91252 41.7994 2.72706 39.0309 3.14124 37.8921C4.19962 49.9064 10.1471 64.8972 16.1088 75.2127C18.2583 78.932 21.2507 82.5711 22.1141 86.5431C11.8428 75.7573 1.84394 50.974 0.669605 36.1877Z"/><path fill="#EA746D" d="M0.369168 33.45C0.645151 26.367 2.5293 19.9813 10.9214 22.6933C10.685 23.7513 10.5207 24.4307 10.162 25.4526L10.0111 24.9027C7.76839 24.0456 4.09742 26.7809 3.40596 29.0074C2.53916 31.7984 2.89759 35.0297 3.14124 37.8921C2.72706 39.0309 2.91252 41.7994 2.56984 42.7502C2.26563 41.1607 1.791 37.2229 0.669605 36.1877C0.517325 35.9019 0.405305 33.915 0.369168 33.45Z"/><path fill="#EA746D" d="M10.9214 22.6933C13.8263 17.6232 16.8708 16.8747 22.0678 19.6909C21.0037 19.7374 20.1709 19.7806 19.1061 19.7059L17.0917 19.898C17.5102 20.1636 17.6265 20.1517 18.1089 20.1752L18.0954 20.3093C17.4733 26.7983 29.9216 35.5437 23.0448 41.7856C21.8331 42.8854 19.992 43.75 18.8727 44.9891C16.6173 47.8 16.8284 59.9814 14.0436 61.7467C13.3808 60.7117 13.6305 58.7971 12.4719 57.6518C12.4549 57.6282 12.438 57.6046 12.4211 57.5811C10.6752 52.3619 8.11174 36.5457 9.24675 31.6762C9.32075 29.6817 9.74505 27.397 10.162 25.4526C10.5207 24.4307 10.685 23.7513 10.9214 22.6933Z"/><path fill="#ECCCC8" d="M10.9214 22.6933C13.8263 17.6232 16.8708 16.8747 22.0678 19.6909C21.0037 19.7374 20.1709 19.7806 19.1061 19.7059C17.6509 19.4676 16.2733 19.3569 15.0213 20.4025C11.5411 23.3087 11.2194 29.0347 10.317 33.1859C10.2735 33.3862 9.6517 33.7966 9.46805 33.8677C9.23775 33.1414 9.2632 32.4353 9.24675 31.6762C9.32075 29.6817 9.74505 27.397 10.162 25.4526C10.5207 24.4307 10.685 23.7513 10.9214 22.6933Z"/><path fill="#EA746D" d="M46.8624 89.0033C46.3596 86.7564 45.9283 84.3737 44.8683 82.3221C44.3358 81.2915 43.8232 81.2073 43.3801 80.2373C43.9347 79.8447 44.1505 80.0223 44.9638 80.1107C45.2791 81.0611 46.1171 82.3154 46.8385 82.9895L47.687 84.5219C48.241 85.6108 48.6856 86.5718 49.1733 87.6923C49.5527 89.4826 49.8744 92.4652 51.2805 93.531C51.9321 93.5436 51.8242 93.4746 52.4745 93.0891C51.4652 94.663 46.734 99.6703 45.0495 100.221C46.09 98.8665 48.5093 97.0125 50.0542 94.9775C49.7634 94.3473 48.7162 94.2531 47.9502 92.8797C47.177 91.4934 47.1435 90.5649 46.8624 89.0033Z"/></svg>