<?xml version="1.0" encoding="utf-8"?>
<svg
  xmlns="http://www.w3.org/2000/svg"
  xmlns:xlink="http://www.w3.org/1999/xlink"
  width="148"
  height="148"
>
  <path
    fill="#BF0C13"
    d="M71.5099 28.8895C85.3426 27.5348 99.2758 34.3654 109.337 43.3413C111.561 45.3253 114.179 49.2489 116.473 50.6837C118.562 51.9898 121.398 51.8773 123.669 52.8105C124.19 55.2515 123.203 59.8566 122.961 62.5364C121.024 83.9875 118.041 105.256 115.117 126.585C115.082 126.623 115.047 126.66 115.011 126.697C113.121 128.663 110.329 129.992 107.998 131.361C105.121 133.051 102.107 135.144 98.9749 136.284C94.2348 138.009 81.5865 137.991 76.0274 138.071C70.0735 138.166 55.5722 138.038 50.2085 136.619C46.1235 135.539 36.5617 130.075 33.2151 127.319C31.7249 123.535 31.1273 114.814 30.5096 110.285C28.7819 97.6215 27.2309 84.9349 25.857 72.2285C25.1206 65.6365 23.9945 58.8141 23.9592 52.1817C26.2206 52.109 28.2912 51.8126 30.5028 51.3621C32.1675 49.8595 33.401 47.9392 34.9106 46.2884C36.1617 44.9204 37.6883 43.6885 39.0917 42.4706C48.185 34.579 59.3684 29.37 71.5099 28.8895Z"
  />
  <defs>
    <linearGradient
      id="gradient_0"
      gradientUnits="userSpaceOnUse"
      x1="73.354538"
      y1="135.00893"
      x2="73.626831"
      y2="55.590149"
    >
      <stop offset="0" stop-color="#CF1817" />
      <stop offset="1" stop-color="#FF5458" />
    </linearGradient>
  </defs>
  <path
    fill="url(#gradient_0)"
    d="M120.882 55.1774C121.688 57.7895 118.826 76.0305 118.613 80.4605L118.169 79.8953L118.509 79.8135C118.71 77.4115 118.842 74.992 119.176 72.6037C119.381 71.1455 119.894 69.5331 119.889 68.0694C119.888 67.7713 119.771 67.392 119.553 67.1807C118.415 66.0782 114.633 66.5826 113.118 66.6104C113.117 67.0299 113.109 67.4493 113.095 67.8685C112.879 74.1399 111.923 80.294 110.963 86.4843C109.122 98.6833 106.579 110.766 103.348 122.672C102.519 125.665 101.78 129.233 100.305 131.964C99.9378 132.643 99.3191 133.203 98.7602 133.725C97.8927 133.932 97.0204 134.136 96.1424 134.293C89.706 135.447 52.7254 136.301 48.7253 133.349C44.3861 130.147 38.5598 98.6425 37.7029 92.1956C36.7013 86.6839 35.4868 80.1393 34.8565 74.6294C34.5644 72.0761 34.519 69.3737 34.3367 66.7954C34.3115 66.7799 34.287 66.763 34.261 66.7489C33.3425 66.2491 29.3585 66.744 28.2253 67.1034C27.5733 69.0903 29.6866 77.3559 29.429 80.33C28.3885 71.9539 27.3634 63.5913 26.4655 55.1897C28.9017 56.9822 31.7597 58.1456 34.0283 60.1882C35.8054 61.7882 37.1103 64.5232 38.4641 66.4954C39.7227 68.329 41.1397 70.0685 42.591 71.7517C49.8929 80.2201 59.8183 86.6418 71.1834 87.4712C85.4316 88.5109 97.697 81.0357 106.357 70.1539C108.707 67.2014 110.87 62.8897 113.308 60.336C115.411 58.1345 118.582 57.1691 120.882 55.1774Z"
  />
  <path
    fill="#FEBE2E"
    d="M73.4145 93.2097C82.1578 92.8775 89.5159 99.694 89.8519 108.437C90.1878 117.18 83.3745 124.541 74.6315 124.881C65.8832 125.221 58.5166 118.403 58.1804 109.654C57.8443 100.906 64.6659 93.5421 73.4145 93.2097Z"
  />
  <path
    fill="#F0A309"
    d="M67.8897 113.623C67.8293 113.668 67.7689 113.713 67.7055 113.754C66.8876 114.278 64.6025 114.661 63.6547 114.443C62.6288 114.207 61.7832 113.665 61.2351 112.748C60.6421 111.755 60.4597 110.437 60.7739 109.321C60.994 108.54 61.4729 107.783 62.1986 107.382C64.0628 106.353 65.2745 107.954 66.9442 108.425L67.0116 108.444L67.3932 108.549C67.7647 110.022 67.6263 111.391 68.546 112.598L66.4651 111.32L66.214 111.804L67.8897 113.623Z"
  />
  <path
    fill="#E6890B"
    d="M66.214 111.804C65.3471 111.639 65.1281 112.024 64.3399 112.213C63.799 112.343 62.9968 112.325 62.518 112.003C61.9969 111.653 61.9809 111.262 61.8706 110.694C62.001 110.223 62.1305 109.802 62.5329 109.494C62.9301 109.19 63.4626 109.083 63.9515 109.17C65.1649 109.386 65.8327 110.371 66.4651 111.32L66.214 111.804Z"
  />
  <path
    fill="#F0A309"
    d="M82.8424 107.413C83.4559 107.076 84.3236 107.191 84.9729 107.395C85.6029 107.594 86.1252 108.04 86.42 108.631C87.0038 109.777 87.0797 111.304 86.6476 112.51C86.3859 113.241 85.8877 113.881 85.1793 114.223C84.0734 114.759 82.3738 114.416 81.2772 113.989C80.9227 113.851 80.5842 113.663 80.2625 113.461C80.8084 112.898 81.3254 112.307 81.8486 111.723L81.3275 111.428C80.6877 111.895 80.047 112.435 79.3065 112.731C79.4804 111.257 79.9804 110.006 80.4429 108.612L80.5924 108.617L81.1023 108.047C81.5005 107.707 82.3346 107.568 82.8424 107.413Z"
  />
  <path
    fill="#E6890B"
    d="M81.4332 111.32C82.2919 110.33 82.5431 109.499 84.0407 109.383C84.4396 109.352 84.706 109.525 85.0681 109.68C85.4091 110.33 85.3958 110.402 85.2866 111.132C84.9454 111.648 84.6262 112.005 83.9959 112.131C83.2483 112.28 82.5339 111.986 81.8486 111.723L81.3275 111.428L81.4332 111.32Z"
  />
  <path
    fill="#AF5000"
    d="M66.4651 111.32L68.546 112.598C71.8502 113.868 75.9778 114.097 79.3065 112.731C80.047 112.435 80.6877 111.895 81.3275 111.428L81.8486 111.723C81.3254 112.307 80.8084 112.898 80.2625 113.461C77.8014 115.139 75.4709 116.179 72.4207 115.617C70.7359 115.307 69.3161 114.54 67.8897 113.623L66.214 111.804L66.4651 111.32Z"
  />
  <path
    fill="#AF5000"
    d="M80.4429 108.612C80.3283 108.358 80.209 108.104 80.0687 107.862C79.7319 107.282 79.343 107.016 78.7048 106.85C77.8155 106.959 77.1519 107.577 76.4627 108.103L76.1919 107.919C76.1714 107.182 76.1955 106.479 76.331 105.752C76.5201 104.737 76.7613 104.148 77.6208 103.558C78.3435 103.522 78.8303 103.733 79.3966 104.178C80.7807 105.267 80.892 106.384 81.1023 108.047L80.5924 108.617L80.4429 108.612Z"
  />
  <path
    fill="#AF5000"
    d="M67.0116 108.444C67.1773 106.875 67.1206 105.133 68.4732 104.069C68.9685 103.679 69.418 103.497 70.0444 103.47C70.7865 103.793 71.1741 104.097 71.4777 104.884C71.872 105.906 72.0266 107.102 71.6868 108.155L71.4067 108.229C71.0028 107.608 70.6987 107.025 69.9557 106.779C69.3267 106.763 68.7815 106.972 68.324 107.414C67.9772 107.748 67.6805 108.162 67.3932 108.549L67.0116 108.444Z"
  />
  <path
    fill="#F0A309"
    d="M68.0778 31.8234C69.5286 31.8014 71.9877 33.1734 73.0247 34.1713C74.7108 35.7941 74.8074 37.7931 74.8276 39.9905C74.8305 40.303 74.7941 40.5992 74.7299 40.9047C77.4806 40.5633 80.175 39.2377 82.8728 38.5684C84.0052 41.2779 84.4003 44.2326 85.329 47.0148C85.2892 47.8392 85.7931 49.7677 86.3379 50.3813C86.3786 50.4271 86.4227 50.4698 86.4667 50.5125C86.8425 50.2469 86.8254 49.9833 86.9438 49.5476C86.9186 50.7679 86.9053 51.6975 87.6559 52.7316C87.0317 56.5368 88.8827 60.3987 87.493 64.1854C87.5553 66.9194 87.3469 69.608 87.1277 72.3294C87.0424 72.5091 86.8283 72.6752 86.6839 72.8166C85.683 72.8294 83.9649 72.6183 83.1936 71.9701C82.463 72.468 78.8217 72.9281 77.8717 72.8328C77.244 73.5469 76.7416 74.1191 76.4316 75.0336L76.3926 75.1457C76.3706 75.2103 76.3522 75.2761 76.3338 75.3419C76.1321 78.8774 74.9021 82.1438 74.2923 85.5927C73.4864 85.6256 72.6501 85.5191 71.8447 85.4643C69.8908 85.3797 67.9543 85.0218 66.0248 84.7199C64.8861 84.3387 63.7361 83.9862 62.5923 83.6204C60.7551 82.783 58.7817 82.0457 57.0823 80.9521L55.425 79.9712C54.818 79.6512 54.3118 79.2553 53.7799 78.8281C53.0211 78.4785 52.3705 77.9232 51.7097 77.4192C50.0325 76.1118 47.9492 74.6541 46.7813 72.8504C45.3136 71.7031 43.9907 70.2245 42.9214 68.7054C42.3666 68.1021 41.907 67.3983 41.428 66.7341C39.3251 64.3921 37.6173 61.5132 36.0846 58.7776C34.0734 57.808 30.5623 55.523 28.929 54.017C32.6829 52.7983 32.836 51.3072 35.6319 49.1733C36.7293 47.1231 37.2181 45.6181 39.302 44.3999L44.4394 41.9341C44.6399 41.3259 44.8212 40.8082 45.3435 40.3988C48.2174 38.1463 56.0924 33.1571 59.7583 33.6012C61.4412 33.2133 63.1546 33.0063 64.8642 32.7742C65.8746 32.3496 67.0194 32.1145 68.0778 31.8234Z"
  />
  <path
    fill="#E6890B"
    d="M44.4394 41.9341C45.3641 41.6706 45.9163 41.3956 46.8634 41.6109C48.6777 42.9665 49.082 46.9024 49.415 49.0486C51.0691 47.6746 51.9196 44.819 54.1714 44.4605C54.4007 45.0927 54.9543 45.5368 55.0893 46.1553C54.3982 47.6507 57.0939 62.3374 57.8222 64.3314C57.9486 64.6774 58.129 64.956 58.3866 65.218L58.9426 65.406C59.546 66.0259 59.8537 66.7569 59.9541 67.6164C58.9034 70.8438 58.6241 74.2551 57.7899 77.5346C57.6131 78.6504 57.5186 79.9086 57.0823 80.9521L55.425 79.9712C54.818 79.6512 54.3118 79.2553 53.7799 78.8281C53.0211 78.4785 52.3705 77.9232 51.7097 77.4192C50.0325 76.1118 47.9492 74.6541 46.7813 72.8504C45.3136 71.7031 43.9907 70.2245 42.9214 68.7054C42.3666 68.1021 41.907 67.3983 41.428 66.7341C39.3251 64.3921 37.6173 61.5132 36.0846 58.7776C34.0734 57.808 30.5623 55.523 28.929 54.017C32.6829 52.7983 32.836 51.3072 35.6319 49.1733C36.7293 47.1231 37.2181 45.6181 39.302 44.3999L44.4394 41.9341Z"
  />
  <path
    fill="#F0A309"
    d="M44.4394 41.9341C45.3641 41.6706 45.9163 41.3956 46.8634 41.6109C48.6777 42.9665 49.082 46.9024 49.415 49.0486C49.8162 51.1312 51.7587 54.1878 51.1269 56.234C50.6835 56.6709 50.5572 56.6558 49.9393 56.7341C47.9954 57.1007 46.0553 57.4575 44.1385 57.9498C42.7705 54.8481 41.6339 51.4878 40.6752 48.2385C40.2855 47.4849 40.0121 46.9486 40.1926 46.1151C39.7321 45.5594 39.357 45.1539 39.302 44.3999L44.4394 41.9341Z"
  />
  <path
    fill="#FED453"
    d="M40.6752 48.2385C42.2039 47.7524 43.675 46.738 45.3049 47.4382C46.558 48.7675 47.8354 54.4184 48.7712 55.2507C48.8667 54.7331 48.92 54.2409 48.9381 53.715C49.3698 54.7165 49.696 55.6706 49.9393 56.7341C47.9954 57.1007 46.0553 57.4575 44.1385 57.9498C42.7705 54.8481 41.6339 51.4878 40.6752 48.2385Z"
  />
  <path
    fill="#FEDB7A"
    d="M40.1926 46.1151C42.147 45.3669 44.0851 44.5768 46.0057 43.7456C46.9587 46.8833 48.497 50.4897 48.9381 53.715C48.92 54.2409 48.8667 54.7331 48.7712 55.2507C47.8354 54.4184 46.558 48.7675 45.3049 47.4382C43.675 46.738 42.2039 47.7524 40.6752 48.2385C40.2855 47.4849 40.0121 46.9486 40.1926 46.1151Z"
  />
  <path
    fill="#FEBE2E"
    d="M51.2751 60.0876C51.0215 65.6486 53.5743 72.0353 51.7097 77.4192C50.0325 76.1118 47.9492 74.6541 46.7813 72.8504C46.8532 71.6617 46.5262 70.3674 46.3325 69.1924C45.9632 67.384 45.6958 65.5541 45.4042 63.7319C46.1429 62.8201 45.92 61.6605 46.7123 61.042C48.2521 60.7771 49.7684 60.5099 51.2751 60.0876Z"
  />
  <path
    fill="#FED453"
    d="M45.4042 63.7319C46.1429 62.8201 45.92 61.6605 46.7123 61.042C46.1448 63.1717 48.0786 67.3578 46.7046 69.0622L46.3325 69.1924C45.9632 67.384 45.6958 65.5541 45.4042 63.7319Z"
  />
  <path
    fill="#C82421"
    d="M28.929 54.017C32.6829 52.7983 32.836 51.3072 35.6319 49.1733C36.8403 51.7001 38.0001 54.7237 38.633 57.4526C38.069 58.3213 36.7401 57.7143 36.0846 58.7776C34.0734 57.808 30.5623 55.523 28.929 54.017Z"
  />
  <path
    fill="#F0A309"
    d="M53.7799 78.8281C54.1615 77.0028 55.0863 69.5132 56.5075 68.5322C57.2895 70.4506 55.6875 77.5013 55.425 79.9712C54.818 79.6512 54.3118 79.2553 53.7799 78.8281Z"
  />
  <path
    fill="#FEDB7A"
    d="M44.7132 60.1681C46.0621 59.7868 49.5335 58.4015 50.7283 59.0134C51.07 59.1884 51.1483 59.7329 51.2751 60.0876C49.7684 60.5099 48.2521 60.7771 46.7123 61.042C45.92 61.6605 46.1429 62.8201 45.4042 63.7319C45.2442 62.5429 44.9476 61.3462 44.7132 60.1681Z"
  />
  <path
    fill="#F0A309"
    d="M41.428 66.7341C41.439 66.712 41.4505 66.6901 41.4611 66.6677C42.1223 65.2712 40.3346 62.2273 41.8949 61.5889C42.0631 61.5201 42.2501 61.483 42.4277 61.4468C43.365 62.5509 43.431 66.5065 43.5976 67.9819C43.3961 68.4588 43.3571 68.4832 42.9214 68.7054C42.3666 68.1021 41.907 67.3983 41.428 66.7341Z"
  />
  <path
    fill="#D88506"
    d="M39.4465 57.8131L39.9882 58.0888C40.4636 58.7598 40.0737 60.4716 39.9895 61.2913C39.6937 61.1819 39.4048 61.0325 39.1172 60.9018C38.7111 59.8269 39.1399 58.8808 39.4465 57.8131Z"
  />
  <defs>
    <linearGradient
      id="gradient_1"
      gradientUnits="userSpaceOnUse"
      x1="82.856461"
      y1="72.540756"
      x2="80.416626"
      y2="44.064365"
    >
      <stop offset="0" stop-color="#FFBD0E" />
      <stop offset="1" stop-color="#FFE068" />
    </linearGradient>
  </defs>
  <path
    fill="url(#gradient_1)"
    d="M74.7299 40.9047C77.4806 40.5633 80.175 39.2377 82.8728 38.5684C84.0052 41.2779 84.4003 44.2326 85.329 47.0148C85.2892 47.8392 85.7931 49.7677 86.3379 50.3813C86.3786 50.4271 86.4227 50.4698 86.4667 50.5125C86.8425 50.2469 86.8254 49.9833 86.9438 49.5476C86.9186 50.7679 86.9053 51.6975 87.6559 52.7316C87.0317 56.5368 88.8827 60.3987 87.493 64.1854C87.5553 66.9194 87.3469 69.608 87.1277 72.3294C87.0424 72.5091 86.8283 72.6752 86.6839 72.8166C85.683 72.8294 83.9649 72.6183 83.1936 71.9701C82.5987 69.0765 81.5303 66.092 80.7051 63.2473C78.9558 57.217 77.2032 51.1336 75.1743 45.1921L74.6379 43.3271C74.5215 43.0995 74.4059 42.8697 74.305 42.6348C74.0402 42.018 73.8723 41.6431 74.1258 41.0145L74.7299 40.9047Z"
  />
  <path
    fill="#F0A309"
    d="M74.7299 40.9047C77.4806 40.5633 80.175 39.2377 82.8728 38.5684C84.0052 41.2779 84.4003 44.2326 85.329 47.0148C85.2892 47.8392 85.7931 49.7677 86.3379 50.3813C86.3786 50.4271 86.4227 50.4698 86.4667 50.5125C86.8425 50.2469 86.8254 49.9833 86.9438 49.5476C86.9186 50.7679 86.9053 51.6975 87.6559 52.7316C87.0317 56.5368 88.8827 60.3987 87.493 64.1854L87.161 63.3184C87.0824 63.5256 86.9107 63.6667 86.7577 63.8208C86.5954 63.7141 86.4544 63.5967 86.3437 63.4359C85.4828 62.1863 84.276 58.6782 84.5935 57.1903C84.3295 54.744 82.1042 48.2826 81.1067 45.8424C80.8206 45.1424 80.4472 44.1365 79.7047 43.8268C78.1237 43.6796 76.5714 44.5438 75.1743 45.1921L74.6379 43.3271C74.5215 43.0995 74.4059 42.8697 74.305 42.6348C74.0402 42.018 73.8723 41.6431 74.1258 41.0145L74.7299 40.9047Z"
  />
  <path
    fill="#FEDB7A"
    d="M74.6379 43.3271L81.7657 40.9301C82.6131 45.1333 83.379 49.8446 84.7884 53.8837C84.7734 55.0894 85.0812 56.0763 84.5935 57.1903C84.3295 54.744 82.1042 48.2826 81.1067 45.8424C80.8206 45.1424 80.4472 44.1365 79.7047 43.8268C78.1237 43.6796 76.5714 44.5438 75.1743 45.1921L74.6379 43.3271Z"
  />
  <path
    fill="#FED453"
    d="M84.7884 53.8837C85.5842 56.9975 86.2112 60.2571 87.161 63.3184C87.0824 63.5256 86.9107 63.6667 86.7577 63.8208C86.5954 63.7141 86.4544 63.5967 86.3437 63.4359C85.4828 62.1863 84.276 58.6782 84.5935 57.1903C85.0812 56.0763 84.7734 55.0894 84.7884 53.8837Z"
  />
  <path
    fill="#D88506"
    d="M68.0778 31.8234C69.5286 31.8014 71.9877 33.1734 73.0247 34.1713C74.7108 35.7941 74.8074 37.7931 74.8276 39.9905C74.8305 40.303 74.7941 40.5992 74.7299 40.9047L74.1258 41.0145C73.8723 41.6431 74.0402 42.018 74.305 42.6348C74.4059 42.8697 74.5215 43.0995 74.6379 43.3271L75.1743 45.1921C77.2032 51.1336 78.9558 57.217 80.7051 63.2473C81.5303 66.092 82.5987 69.0765 83.1936 71.9701C82.463 72.468 78.8217 72.9281 77.8717 72.8328C77.244 73.5469 76.7416 74.1191 76.4316 75.0336L76.3926 75.1457C76.3706 75.2103 76.3522 75.2761 76.3338 75.3419C76.1637 68.8217 76.3056 61.7847 75.1443 55.3657C73.4566 55.7795 70.419 56.0988 69.2987 57.4607C69.2558 56.6318 69.0128 55.8112 68.8203 55.0064C69.2058 54.9712 69.5484 54.7933 69.9 54.6412C70.4922 54.075 70.5531 53.5456 70.6691 52.7756C70.5726 52.1215 70.46 51.478 70.3179 50.8322L70.1976 51.0236C68.6434 50.9119 68.4003 38.1493 66.554 36.4471C66.7079 36.296 66.7458 36.1951 66.7863 35.9879C66.8868 35.4732 66.6023 35.2627 66.3178 34.8431L68.0489 34.2833C68.0681 33.7931 67.9809 33.5597 67.7302 33.1454C66.9779 32.6105 65.7609 32.7689 64.8642 32.7742C65.8746 32.3496 67.0194 32.1145 68.0778 31.8234Z"
  />
  <path
    fill="#F0A309"
    d="M70.6691 52.7756C70.739 53.0692 70.7799 53.6538 71.0354 53.8068C72.7971 54.8615 76.4224 51.6038 77.1642 54.4486C78.1101 58.0755 78.3196 68.819 77.8717 72.8328C77.244 73.5469 76.7416 74.1191 76.4316 75.0336L76.3926 75.1457C76.3706 75.2103 76.3522 75.2761 76.3338 75.3419C76.1637 68.8217 76.3056 61.7847 75.1443 55.3657C73.4566 55.7795 70.419 56.0988 69.2987 57.4607C69.2558 56.6318 69.0128 55.8112 68.8203 55.0064C69.2058 54.9712 69.5484 54.7933 69.9 54.6412C70.4922 54.075 70.5531 53.5456 70.6691 52.7756Z"
  />
  <path
    fill="#FED453"
    d="M66.3178 34.8431L68.0489 34.2833C68.9655 39.7586 69.8327 45.3012 70.3179 50.8322L70.1976 51.0236C68.6434 50.9119 68.4003 38.1493 66.554 36.4471C66.7079 36.296 66.7458 36.1951 66.7863 35.9879C66.8868 35.4732 66.6023 35.2627 66.3178 34.8431Z"
  />
  <path
    fill="#F0A309"
    d="M70.662 35.2582C70.9942 35.3538 71.3192 35.4945 71.6427 35.6171C72.6549 36.7751 72.8891 38.7759 72.9823 40.2752C73.0398 41.1993 72.9726 41.5039 72.3645 42.1991C72.0592 42.5975 71.8162 42.9722 71.3321 43.16C71.1244 40.5248 70.9011 37.8908 70.662 35.2582Z"
  />
  <defs>
    <linearGradient
      id="gradient_2"
      gradientUnits="userSpaceOnUse"
      x1="65.404282"
      y1="76.934288"
      x2="80.722092"
      y2="63.124008"
    >
      <stop offset="0" stop-color="#FFBC04" />
      <stop offset="1" stop-color="#FEDF83" />
    </linearGradient>
  </defs>
  <path
    fill="url(#gradient_2)"
    d="M69.2987 57.4607C70.419 56.0988 73.4566 55.7795 75.1443 55.3657C76.3056 61.7847 76.1637 68.8217 76.3338 75.3419C76.1321 78.8774 74.9021 82.1438 74.2923 85.5927C73.4864 85.6256 72.6501 85.5191 71.8447 85.4643C71.0154 78.6261 70.8922 71.6667 70.2356 64.8005C70.003 62.3676 69.8996 59.8303 69.2987 57.4607Z"
  />
  <path
    fill="#FED453"
    d="M55.0893 46.1553C57.122 46.0214 59.1895 45.299 61.1925 44.8964C61.9911 51.9725 62.86 59.0066 63.8396 66.0584C62.2079 66.0295 60.5516 65.6665 58.9426 65.406L58.3866 65.218C58.129 64.956 57.9486 64.6774 57.8222 64.3314C57.0939 62.3374 54.3982 47.6507 55.0893 46.1553Z"
  />
  <path
    fill="#C82421"
    d="M44.4394 41.9341C44.6399 41.3259 44.8212 40.8082 45.3435 40.3988C48.2174 38.1463 56.0924 33.1571 59.7583 33.6012C58.7604 35.5528 60.5268 40.7154 60.9608 42.8523L54.1714 44.4605C51.9196 44.819 51.0691 47.6746 49.415 49.0486C49.082 46.9024 48.6777 42.9665 46.8634 41.6109C45.9163 41.3956 45.3641 41.6706 44.4394 41.9341Z"
  />
  <path
    fill="#FEBE2E"
    d="M66.554 36.4471C68.4003 38.1493 68.6434 50.9119 70.1976 51.0236L70.3179 50.8322C70.46 51.478 70.5726 52.1215 70.6691 52.7756C70.5531 53.5456 70.4922 54.075 69.9 54.6412C69.5484 54.7933 69.2058 54.9712 68.8203 55.0064C67.7515 55.1461 67.3327 55.3221 66.6673 56.1918L65.3364 57.9608C64.6276 56.6508 64.5638 52.6738 64.3699 51.0395C63.8345 46.5262 62.8949 42.1279 62.1841 37.6444C62.217 37.6233 62.2501 37.6027 62.2828 37.5812C63.5372 36.7549 65.1001 36.7093 66.554 36.4471Z"
  />
  <path
    fill="#D88506"
    d="M65.3364 57.9608L66.6673 56.1918C67.3327 55.3221 67.7515 55.1461 68.8203 55.0064C69.0128 55.8112 69.2558 56.6318 69.2987 57.4607C69.8996 59.8303 70.003 62.3676 70.2356 64.8005C70.8922 71.6667 71.0154 78.6261 71.8447 85.4643C69.8908 85.3797 67.9543 85.0218 66.0248 84.7199C66.3833 84.4612 66.4766 84.3475 66.5334 83.8979C66.6703 82.8137 66.3238 81.523 66.3166 80.4093C66.299 77.6946 66.9386 74.8473 67.7034 72.2561C67.7031 74.498 67.7699 76.7393 67.9039 78.9771C67.9741 80.0549 67.9438 83.7644 68.7351 84.4109C69.2345 84.819 69.484 84.9382 70.0973 84.8634L70.2087 84.3932C68.5509 81.1422 69.2697 76.0304 68.9444 72.3966C68.7612 70.3501 68.3386 68.3186 68.1781 66.2596C68.0186 64.2148 68.2336 61.7373 67.2787 59.8716L66.9039 59.7542C65.8815 61.2231 67.0271 64.0622 66.7449 65.8028C66.6283 66.522 66.4588 66.6869 65.9122 67.0929L65.5382 66.9937L65.2095 66.4176C65.5307 64.1845 64.8181 61.9578 64.2847 59.8069L65.3364 57.9608Z"
  />
  <path
    fill="#FED453"
    d="M59.9541 67.6164C61.5781 68.1061 64.9175 68.277 65.9055 69.6351C65.9545 70.2197 65.8698 70.6312 65.6833 71.1852C64.724 75.3105 63.9537 79.6125 62.5923 83.6204C60.7551 82.783 58.7817 82.0457 57.0823 80.9521C57.5186 79.9086 57.6131 78.6504 57.7899 77.5346C58.6241 74.2551 58.9034 70.8438 59.9541 67.6164Z"
  />
  <path
    fill="#FEDB7A"
    d="M59.9541 67.6164C61.5781 68.1061 64.9175 68.277 65.9055 69.6351C65.9545 70.2197 65.8698 70.6312 65.6833 71.1852C64.1512 70.7566 62.63 70.2902 61.1209 69.7866C60.1588 71.8069 59.7098 76.7171 58.3486 78.0718C58.0658 77.9233 57.926 77.8283 57.7899 77.5346C58.6241 74.2551 58.9034 70.8438 59.9541 67.6164Z"
  />
  <path
    fill="#FED453"
    d="M62.1841 37.6444C61.9764 36.9432 61.8392 36.6623 62.0552 35.9345C63.059 35.0858 65.0167 35.0429 66.3178 34.8431C66.6023 35.2627 66.8868 35.4732 66.7863 35.9879C66.7458 36.1951 66.7079 36.296 66.554 36.4471C65.1001 36.7093 63.5372 36.7549 62.2828 37.5812C62.2501 37.6027 62.217 37.6233 62.1841 37.6444Z"
  />
  <path
    fill="#F0A309"
    d="M93.4523 35.7355L95.7573 36.5549C97.2009 37.0753 101.745 38.2714 102.376 39.614C102.473 39.8197 102.453 40.0123 102.458 40.2348C104.299 41.7831 111.512 47.5348 112.143 49.3753C112.235 49.6451 112.213 50.1809 112.24 50.4791C114.233 51.4941 116.258 52.4949 118.088 53.7934C116.962 54.907 115.798 56.05 114.353 56.7427C110.008 59.7101 108.614 63.8798 105.407 67.8892C104.904 68.4934 104.357 69.3216 103.762 69.8166C102.688 71.1595 101.571 72.5256 100.313 73.7021C99.6108 74.3695 98.9109 75.1135 98.1281 75.6827C96.079 77.4852 93.9925 79.1469 91.5946 80.4667L91.9539 72.7155L91.2922 73.5408C90.6832 73.5247 89.9009 73.1779 89.3528 73.3482C88.9191 73.3202 88.404 73.3201 87.989 73.1893C87.442 73.0169 87.3667 72.8135 87.1277 72.3294C87.3469 69.608 87.5553 66.9194 87.493 64.1854C88.8827 60.3987 87.0317 56.5368 87.6559 52.7316C86.9053 51.6975 86.9186 50.7679 86.9438 49.5476C86.8254 49.9833 86.8425 50.2469 86.4667 50.5125C86.4227 50.4698 86.3786 50.4271 86.3379 50.3813C85.7931 49.7677 85.2892 47.8392 85.329 47.0148C86.5663 45.3158 86.9492 40.1546 87.9362 37.6882C89.5924 36.8122 91.664 36.3216 93.4523 35.7355Z"
  />
  <defs>
    <linearGradient
      id="gradient_3"
      gradientUnits="userSpaceOnUse"
      x1="100.28752"
      y1="61.723118"
      x2="81.290436"
      y2="47.144855"
    >
      <stop offset="0" stop-color="#CB760A" />
      <stop offset="1" stop-color="#E9910B" />
    </linearGradient>
  </defs>
  <path
    fill="url(#gradient_3)"
    d="M93.4523 35.7355L95.7573 36.5549C94.9678 37.0097 94.7055 37.2919 94.282 38.1169C94.2719 38.1367 94.2625 38.1569 94.2527 38.1768C92.4981 40.0452 91.7866 45.9908 90.8116 48.5822C90.5773 49.4274 89.7731 51.5269 90.1934 52.2819C90.7002 51.9368 91.01 51.6417 91.3345 51.1202C91.9774 50.9969 92.6608 50.9621 93.313 50.8896C93.3717 51.5663 93.5134 52.3339 93.4278 53.006L93.3955 54.2083C92.5197 60.1914 92.1001 66.6668 91.9539 72.7155L91.2922 73.5408C90.6832 73.5247 89.9009 73.1779 89.3528 73.3482C88.9191 73.3202 88.404 73.3201 87.989 73.1893C87.442 73.0169 87.3667 72.8135 87.1277 72.3294C87.3469 69.608 87.5553 66.9194 87.493 64.1854C88.8827 60.3987 87.0317 56.5368 87.6559 52.7316C86.9053 51.6975 86.9186 50.7679 86.9438 49.5476C86.8254 49.9833 86.8425 50.2469 86.4667 50.5125C86.4227 50.4698 86.3786 50.4271 86.3379 50.3813C85.7931 49.7677 85.2892 47.8392 85.329 47.0148C86.5663 45.3158 86.9492 40.1546 87.9362 37.6882C89.5924 36.8122 91.664 36.3216 93.4523 35.7355Z"
  />
  <path
    fill="#F0A309"
    d="M86.9438 49.5476C87.701 47.3961 88.6355 39.8397 90.5061 38.9107C91.1885 40.4456 88.0391 50.243 87.6559 52.7316C86.9053 51.6975 86.9186 50.7679 86.9438 49.5476Z"
  />
  <path
    fill="#E6890B"
    d="M102.432 52.1541C102.682 51.444 102.892 50.7904 103.559 50.364C103.596 50.3404 103.634 50.3179 103.671 50.2944C105.02 49.4402 106.994 49.3224 108.548 49.0573C109.792 49.4919 111.014 49.9955 112.24 50.4791C114.233 51.4941 116.258 52.4949 118.088 53.7934C116.962 54.907 115.798 56.05 114.353 56.7427C110.008 59.7101 108.614 63.8798 105.407 67.8892C104.904 68.4934 104.357 69.3216 103.762 69.8166C102.65 69.4785 101.379 69.3683 100.23 69.1741C99.8906 67.6334 101.299 64.8211 101.821 63.3568L101.573 60.9769C100.944 59.5826 102.101 53.9077 102.432 52.1541Z"
  />
  <path
    fill="#FEBE2E"
    d="M104.244 66.2133C104.412 64.7059 108.62 55.7377 109.591 54.3516C110.52 54.1309 112.123 54.989 113.085 55.2704C114.053 55.5539 114.428 55.2605 115.238 54.8175L114.353 56.7427C110.008 59.7101 108.614 63.8798 105.407 67.8892C105.103 67.1781 104.784 66.753 104.244 66.2133Z"
  />
  <path
    fill="#FEDB7A"
    d="M109.242 51.3641C110.825 52.306 114.373 53.1704 115.238 54.8175C114.428 55.2605 114.053 55.5539 113.085 55.2704C112.123 54.989 110.52 54.1309 109.591 54.3516C108.62 55.7377 104.412 64.7059 104.244 66.2133C104.083 66.8011 103.96 67.1888 103.507 67.6098L103.108 67.4618C102.998 65.3293 108.091 53.9491 109.242 51.3641Z"
  />
  <path
    fill="#F0A309"
    d="M101.573 60.9769C102.087 58.7534 103.45 53.4031 105.042 51.9399L105.663 51.7863L105.967 51.9848C105.982 54.4037 102.513 60.6007 101.821 63.3568L101.573 60.9769Z"
  />
  <defs>
    <linearGradient
      id="gradient_4"
      gradientUnits="userSpaceOnUse"
      x1="89.306282"
      y1="77.935417"
      x2="99.826126"
      y2="56.379204"
    >
      <stop offset="0" stop-color="#FFC523" />
      <stop offset="1" stop-color="#FFDE64" />
    </linearGradient>
  </defs>
  <path
    fill="url(#gradient_4)"
    d="M93.4278 53.006C95.663 52.9507 97.8899 52.9155 100.125 52.9629C99.6563 56.578 99.0422 60.234 98.7379 63.8634C98.5106 66.0976 97.2139 73.9517 98.1281 75.6827C96.079 77.4852 93.9925 79.1469 91.5946 80.4667L91.9539 72.7155C92.1001 66.6668 92.5197 60.1914 93.3955 54.2083L93.4278 53.006Z"
  />
  <path
    fill="#FEDB7A"
    d="M93.4278 53.006C95.663 52.9507 97.8899 52.9155 100.125 52.9629C99.6563 56.578 99.0422 60.234 98.7379 63.8634C97.4264 64.9649 97.9664 70.5181 97.6366 72.3095L97.4013 72.37C96.8839 70.3542 97.9865 58.486 97.9896 54.9107C96.4564 54.8086 94.8178 54.8435 93.3955 54.2083L93.4278 53.006Z"
  />
  <path
    fill="#FED453"
    d="M94.2527 38.1768C95.524 38.7583 99.3667 39.5658 99.9394 40.748C99.9009 41.2458 99.7887 41.5849 99.5676 42.0314C98.3215 44.6625 97.4723 47.9546 96.7044 50.7705C95.599 50.7639 94.3966 50.6671 93.313 50.8896C92.6608 50.9621 91.9774 50.9969 91.3345 51.1202C91.01 51.6417 90.7002 51.9368 90.1934 52.2819C89.7731 51.5269 90.5773 49.4274 90.8116 48.5822C91.7866 45.9908 92.4981 40.0452 94.2527 38.1768Z"
  />
  <path
    fill="#FEDB7A"
    d="M94.2527 38.1768C95.524 38.7583 99.3667 39.5658 99.9394 40.748C99.9009 41.2458 99.7887 41.5849 99.5676 42.0314C97.8656 41.4774 96.3772 40.583 94.5977 41.366C93.4453 42.3233 92.5224 46.8252 91.8811 48.5035L91.4478 49.1306L90.8116 48.5822C91.7866 45.9908 92.4981 40.0452 94.2527 38.1768Z"
  />
  <path
    fill="#C82421"
    d="M98.7195 50.8946C99.8711 47.3533 100.927 43.6251 102.458 40.2348C104.299 41.7831 111.512 47.5348 112.143 49.3753C112.235 49.6451 112.213 50.1809 112.24 50.4791C111.014 49.9955 109.792 49.4919 108.548 49.0573C106.994 49.3224 105.02 49.4402 103.671 50.2944C103.634 50.3179 103.596 50.3404 103.559 50.364C102.892 50.7904 102.682 51.444 102.432 52.1541L101.939 51.2645C101.07 50.7247 99.7231 50.8893 98.7195 50.8946Z"
  />
  <path
    fill="#FED453"
    d="M100.23 69.1741C101.379 69.3683 102.65 69.4785 103.762 69.8166C102.688 71.1595 101.571 72.5256 100.313 73.7021C99.732 72.3348 99.9526 70.5891 100.23 69.1741Z"
  />
  <path
    fill="#E6890B"
    d="M83.1936 71.9701C83.9649 72.6183 85.683 72.8294 86.6839 72.8166C86.8283 72.6752 87.0424 72.5091 87.1277 72.3294C87.3667 72.8135 87.442 73.0169 87.989 73.1893C88.404 73.3201 88.9191 73.3202 89.3528 73.3482C89.9009 73.1779 90.6832 73.5247 91.2922 73.5408L91.9539 72.7155L91.5946 80.4667C90.965 80.8568 90.3495 81.2557 89.6603 81.5344C88.7321 81.9825 87.7984 82.4853 86.8353 82.8501C84.838 83.729 82.839 84.489 80.6885 84.9079C79.8853 85.0639 79.0691 85.1978 78.2725 85.3825L77.594 85.3107C76.506 85.5015 75.3937 85.5337 74.2923 85.5927C74.9021 82.1438 76.1321 78.8774 76.3338 75.3419C76.3522 75.2761 76.3706 75.2103 76.3926 75.1457L76.4316 75.0336C76.7416 74.1191 77.244 73.5469 77.8717 72.8328C78.8217 72.9281 82.463 72.468 83.1936 71.9701Z"
  />
  <path
    fill="#FED453"
    d="M84.2458 75.7728C85.6268 76.1288 86.9925 76.6188 88.353 77.0497C87.6373 78.0703 86.8886 81.5851 86.8353 82.8501C84.838 83.729 82.839 84.489 80.6885 84.9079C80.8595 83.1771 81.3363 81.4659 81.8356 79.8062L82.3258 80.1173C83.0594 79.7085 83.886 76.717 84.2458 75.7728Z"
  />
  <path
    fill="#F0A309"
    d="M77.594 85.3107L76.8762 85.085C76.5176 83.5472 78.6219 76.1463 79.4859 74.8102C79.6355 74.5788 79.8023 74.4208 80.0349 74.2742C80.3335 74.5288 80.4365 74.6081 80.4691 75.0106C80.5651 76.1939 78.646 83.5071 78.2725 85.3825L77.594 85.3107Z"
  />
  <path
    fill="#FEDB7A"
    d="M83.1981 74.2658C84.8747 74.7564 86.6978 74.5819 88.2423 75.4588C88.6219 76.0959 88.4793 76.3521 88.353 77.0497C86.9925 76.6188 85.6268 76.1288 84.2458 75.7728C83.886 76.717 83.0594 79.7085 82.3258 80.1173L81.8356 79.8062C82.1625 77.9635 82.768 76.0969 83.1981 74.2658Z"
  />
  <path
    fill="#D88506"
    d="M89.3528 73.3482C89.9009 73.1779 90.6832 73.5247 91.2922 73.5408L91.9539 72.7155L91.5946 80.4667C90.965 80.8568 90.3495 81.2557 89.6603 81.5344C88.9413 79.375 91.4538 76.4232 90.9261 74.1321C90.3926 73.8895 89.8678 73.628 89.3528 73.3482Z"
  />
  <path
    fill="#C82421"
    d="M68.0778 31.8234C74.2437 29.4113 85.1608 31.6945 91.0585 34.2796C91.8201 34.6134 92.5137 34.939 93.1569 35.478L93.2659 35.5677C93.33 35.6213 93.3913 35.6784 93.4523 35.7355C91.664 36.3216 89.5924 36.8122 87.9362 37.6882C86.9492 40.1546 86.5663 45.3158 85.329 47.0148C84.4003 44.2326 84.0052 41.2779 82.8728 38.5684C80.175 39.2377 77.4806 40.5633 74.7299 40.9047C74.7941 40.5992 74.8305 40.303 74.8276 39.9905C74.8074 37.7931 74.7108 35.7941 73.0247 34.1713C71.9877 33.1734 69.5286 31.8014 68.0778 31.8234Z"
  />
</svg>
