<?xml version="1.0" encoding="utf-8"?>
<svg
  xmlns="http://www.w3.org/2000/svg"
  xmlns:xlink="http://www.w3.org/1999/xlink"
  width="148"
  height="148"
>
  <defs>
    <linearGradient
      id="gradient_0"
      gradientUnits="userSpaceOnUse"
      x1="96.132385"
      y1="79.091301"
      x2="44.873062"
      y2="97.031311"
    >
      <stop offset="0" stop-color="#EDA62F" />
      <stop offset="1" stop-color="#F0DDA6" />
    </linearGradient>
  </defs>
  <path
    fill="url(#gradient_0)"
    d="M12.5959 67.2994C10.1675 65.5603 7.54386 62.4232 7.05426 59.4286C6.57801 56.5157 8.63738 53.661 10.2598 51.4188C13.183 47.3789 16.7492 43.7474 20.3848 40.3497C38.4317 23.4837 62.7584 11.9981 87.1072 8.13507C92.8739 7.22016 109.407 5.45927 114.158 8.95353C116.36 10.5734 116.52 13.7768 116.902 16.2525C117.11 19.378 117.007 21.7492 116.093 24.7739C115.729 25.9803 115.245 27.2415 115.042 28.4795C114.747 30.2809 114.953 32.3521 114.929 34.1871C115.227 46.0571 115.751 57.9548 115.762 69.8279C115.767 74.9596 115.288 80.0804 115.153 85.2085C114.92 94.0483 114.936 134.074 110.111 139.305C109.584 139.876 108.984 140.05 108.224 140.059C102.24 140.132 92.1172 132.202 87.2795 128.817C83.7359 125.977 79.3091 124.037 76.614 120.286C74.3356 117.536 71.8592 115.036 69.3006 112.552C67.1105 110.327 63.8637 108.231 61.4106 106.102C56.4796 101.822 52.0416 97.0392 47.3145 92.5513C45.3546 90.6906 43.0566 89.2291 41.1923 87.2633C41.3353 86.9195 41.5104 86.4917 41.5032 86.1116C41.4853 85.1522 40.6874 83.5313 40.026 82.8521L39.9223 82.4245C39.47 81.5133 39.1301 80.6078 38.8174 79.6405C38.5141 78.2016 38.3247 76.6742 38.4188 75.2064L38.2676 75.2812C38.2876 74.9226 38.2528 74.5478 38.078 74.2281C37.5848 73.3262 36.0038 71.2711 35.0136 70.9944C35.2457 70.3528 35.3048 69.6381 35.4033 68.9649C35.1322 69.4631 35.048 69.863 34.4885 70.0524C32.8066 68.8793 31.7226 67.0289 30.1706 65.7067C28.0215 66.7862 26.1102 67.8458 24.256 69.403L23.1543 69.6323C22.7073 69.9336 22.2342 70.2221 21.81 70.5538C21.7433 70.5617 21.6766 70.5693 21.6096 70.5741C18.5105 70.7958 14.8897 69.296 12.5959 67.2994Z"
  />
  <defs>
    <linearGradient
      id="gradient_1"
      gradientUnits="userSpaceOnUse"
      x1="63.302738"
      y1="39.634369"
      x2="54.204453"
      y2="21.281116"
    >
      <stop offset="0" stop-color="#E8993E" />
      <stop offset="1" stop-color="#F9C95E" />
    </linearGradient>
  </defs>
  <path
    fill="url(#gradient_1)"
    d="M12.5959 67.2994C10.1675 65.5603 7.54386 62.4232 7.05426 59.4286C6.57801 56.5157 8.63738 53.661 10.2598 51.4188C13.183 47.3789 16.7492 43.7474 20.3848 40.3497C38.4317 23.4837 62.7584 11.9981 87.1072 8.13507C92.8739 7.22016 109.407 5.45927 114.158 8.95353C116.36 10.5734 116.52 13.7768 116.902 16.2525C117.11 19.378 117.007 21.7492 116.093 24.7739C115.729 25.9803 115.245 27.2415 115.042 28.4795C114.747 30.2809 114.953 32.3521 114.929 34.1871C114.255 33.1918 114.729 29.2745 114.772 27.9098C113.868 27.9685 112.835 27.9258 112.018 28.3527C109.023 29.2032 105.729 28.5295 102.661 28.838C101.816 29.0685 100.908 29.2587 100.102 29.5992C95.7344 31.3737 92.3622 31.3492 87.7571 30.8093C85.9962 31.1418 84.0031 31.4893 82.4369 32.3917C77.2491 35.7022 70.8594 36.9852 65.1968 39.2132C63.483 39.8875 61.8581 40.8049 60.2409 41.6803C53.937 44.3915 55.5267 46.266 51.6873 48.7691C48.794 50.6553 44.8104 51.0194 41.6135 52.3708C40.9032 52.9286 40.1992 53.4991 39.4718 54.0342C37.2094 58.4739 35.8584 60.5497 30.9846 62.216C30.7937 63.273 30.7039 64.7862 30.1706 65.7067C28.0215 66.7862 26.1102 67.8458 24.256 69.403L23.1543 69.6323C22.7073 69.9336 22.2342 70.2221 21.81 70.5538C21.7433 70.5617 21.6766 70.5693 21.6096 70.5741C18.5105 70.7958 14.8897 69.296 12.5959 67.2994Z"
  />
  <defs>
    <linearGradient
      id="gradient_2"
      gradientUnits="userSpaceOnUse"
      x1="66.400818"
      y1="47.167225"
      x2="59.210705"
      y2="32.376766"
    >
      <stop offset="0" stop-color="#AD3F05" />
      <stop offset="1" stop-color="#B95E1D" />
    </linearGradient>
  </defs>
  <path
    fill="url(#gradient_2)"
    d="M116.902 16.2525C117.11 19.378 117.007 21.7492 116.093 24.7739C115.729 25.9803 115.245 27.2415 115.042 28.4795C114.747 30.2809 114.953 32.3521 114.929 34.1871C114.255 33.1918 114.729 29.2745 114.772 27.9098C113.868 27.9685 112.835 27.9258 112.018 28.3527C109.023 29.2032 105.729 28.5295 102.661 28.838C101.816 29.0685 100.908 29.2587 100.102 29.5992C95.7344 31.3737 92.3622 31.3492 87.7571 30.8093C85.9962 31.1418 84.0031 31.4893 82.4369 32.3917C77.2491 35.7022 70.8594 36.9852 65.1968 39.2132C63.483 39.8875 61.8581 40.8049 60.2409 41.6803C53.937 44.3915 55.5267 46.266 51.6873 48.7691C48.794 50.6553 44.8104 51.0194 41.6135 52.3708C40.9032 52.9286 40.1992 53.4991 39.4718 54.0342C37.2094 58.4739 35.8584 60.5497 30.9846 62.216C30.7937 63.273 30.7039 64.7862 30.1706 65.7067C28.0215 66.7862 26.1102 67.8458 24.256 69.403L23.1543 69.6323C22.7073 69.9336 22.2342 70.2221 21.81 70.5538C21.7433 70.5617 21.6766 70.5693 21.6096 70.5741C18.5105 70.7958 14.8897 69.296 12.5959 67.2994L14.1393 65.78C14.6865 65.5925 15.056 64.9096 15.385 64.4565C19.2131 63.3424 27.3483 53.8339 30.8808 50.693C33.4856 48.3769 36.3694 46.2674 39.1877 44.2167C49.1778 36.8833 60.1882 31.0526 71.8683 26.9104C78.689 24.5901 85.7148 22.9233 92.8509 21.9325C95.7334 21.5331 113.245 20.5117 114.215 19.7456C114.275 18.6701 114.517 17.7149 114.888 16.7092C115.394 16.9301 116.002 17.2923 116.559 17.1547L116.902 16.2525Z"
  />
  <path
    fill="#9E1500"
    d="M116.902 16.2525C117.11 19.378 117.007 21.7492 116.093 24.7739C115.729 25.9803 115.245 27.2415 115.042 28.4795C114.747 30.2809 114.953 32.3521 114.929 34.1871C114.255 33.1918 114.729 29.2745 114.772 27.9098C113.868 27.9685 112.835 27.9258 112.018 28.3527C109.023 29.2032 105.729 28.5295 102.661 28.838C101.816 29.0685 100.908 29.2587 100.102 29.5992C95.7344 31.3737 92.3622 31.3492 87.7571 30.8093C85.9962 31.1418 84.0031 31.4893 82.4369 32.3917C77.2491 35.7022 70.8594 36.9852 65.1968 39.2132C63.483 39.8875 61.8581 40.8049 60.2409 41.6803C53.937 44.3915 55.5267 46.266 51.6873 48.7691C48.794 50.6553 44.8104 51.0194 41.6135 52.3708C40.9032 52.9286 40.1992 53.4991 39.4718 54.0342C37.2094 58.4739 35.8584 60.5497 30.9846 62.216C30.7937 63.273 30.7039 64.7862 30.1706 65.7067C28.0215 66.7862 26.1102 67.8458 24.256 69.403L23.1543 69.6323C22.7073 69.9336 22.2342 70.2221 21.81 70.5538C21.7433 70.5617 21.6766 70.5693 21.6096 70.5741C18.5105 70.7958 14.8897 69.296 12.5959 67.2994L14.1393 65.78C15.9218 66.4363 18.2882 68.187 20.2027 67.9925C20.9773 67.9138 21.6436 67.2792 22.1962 66.7729C24.3143 64.8323 26.1333 62.4287 28.1019 60.3252C30.5522 57.7071 33.2931 55.3481 36.0603 53.0718C51.7619 40.1561 70.9249 30.6946 91.099 27.5471C97.4951 26.5492 103.912 26.4221 110.335 25.8003C111.383 25.6988 112.772 25.5873 113.461 24.6992C114.438 23.4414 114.402 21.2471 114.215 19.7456C114.275 18.6701 114.517 17.7149 114.888 16.7092C115.394 16.9301 116.002 17.2923 116.559 17.1547L116.902 16.2525Z"
  />
  <path
    fill="#C02706"
    d="M41.6135 52.3708C41.6605 52.2475 41.7082 52.1259 41.7641 52.0063C43.2025 48.9288 60.3029 39.9122 64.0522 38.1589C67.2276 36.6741 70.557 35.433 73.843 34.215C76.1415 33.363 80.153 31.3426 82.4369 32.3917C77.2491 35.7022 70.8594 36.9852 65.1968 39.2132C63.483 39.8875 61.8581 40.8049 60.2409 41.6803C53.937 44.3915 55.5267 46.266 51.6873 48.7691C48.794 50.6553 44.8104 51.0194 41.6135 52.3708Z"
  />
  <path
    fill="#C02706"
    d="M23.1543 69.6323C23.5218 68.5806 24.0701 67.905 24.793 67.0879C27.2017 64.3652 36.3464 54.2234 39.4718 54.0342C37.2094 58.4739 35.8584 60.5497 30.9846 62.216C30.7937 63.273 30.7039 64.7862 30.1706 65.7067C28.0215 66.7862 26.1102 67.8458 24.256 69.403L23.1543 69.6323Z"
  />
  <path
    fill="#C02706"
    d="M98.7698 28.4991L100.102 29.5992C95.7344 31.3737 92.3622 31.3492 87.7571 30.8093C88.0326 30.7526 88.3092 30.6844 88.5872 30.6428C89.7421 30.47 90.7982 29.8436 91.9706 29.6041C94.205 29.1476 96.5789 29.1086 98.7698 28.4991Z"
  />
  <defs>
    <linearGradient
      id="gradient_3"
      gradientUnits="userSpaceOnUse"
      x1="65.166275"
      y1="43.13554"
      x2="57.970901"
      y2="28.497402"
    >
      <stop offset="0" stop-color="#CB510E" />
      <stop offset="1" stop-color="#E39B44" />
    </linearGradient>
  </defs>
  <path
    fill="url(#gradient_3)"
    d="M86.7097 14.1185C91.7982 12.771 106.885 11.4789 111.332 14.0668C112.049 14.4844 113.515 15.7796 114.295 15.7944C114.484 16.0287 114.882 16.4061 114.888 16.7092C114.517 17.7149 114.275 18.6701 114.215 19.7456C113.245 20.5117 95.7334 21.5331 92.8509 21.9325C85.7148 22.9233 78.689 24.5901 71.8683 26.9104C60.1882 31.0526 49.1778 36.8833 39.1877 44.2167C36.3694 46.2674 33.4856 48.3769 30.8808 50.693C27.3483 53.8339 19.2131 63.3424 15.385 64.4565C14.4612 64.3928 13.3871 64.6285 12.6519 63.9594C12.8465 62.9072 11.8751 61.7267 11.9165 60.5593C12.0456 56.914 20.2989 48.6383 23.0053 46.1955C23.4187 46.1746 23.7752 46.1097 24.1544 45.9411C30.5782 43.0855 36.591 39.4241 42.8112 36.1751C52.0448 31.3519 61.4701 26.8079 70.8491 22.2729C74.2161 20.6448 84.9202 16.6702 86.8103 14.6754L86.7097 14.1185Z"
  />
  <path
    fill="#C5580B"
    d="M12.5959 67.2994C10.1675 65.5603 7.54386 62.4232 7.05426 59.4286C6.57801 56.5157 8.63738 53.661 10.2598 51.4188C13.183 47.3789 16.7492 43.7474 20.3848 40.3497C38.4317 23.4837 62.7584 11.9981 87.1072 8.13507C92.8739 7.22016 109.407 5.45927 114.158 8.95353C116.36 10.5734 116.52 13.7768 116.902 16.2525L116.559 17.1547C116.002 17.2923 115.394 16.9301 114.888 16.7092C114.882 16.4061 114.484 16.0287 114.295 15.7944C113.946 14.226 113.714 11.805 112.27 10.859C107.12 7.48545 86.2483 10.7424 79.815 12.1774C55.603 17.5783 24.1703 34.2927 10.5681 55.6871C9.94874 56.6611 9.30937 57.8726 9.55984 59.0607C9.91951 60.7668 11.3544 62.8238 12.6519 63.9594C13.3871 64.6285 14.4612 64.3928 15.385 64.4565C15.056 64.9096 14.6865 65.5925 14.1393 65.78L12.5959 67.2994Z"
  />
  <defs>
    <linearGradient
      id="gradient_4"
      gradientUnits="userSpaceOnUse"
      x1="55.435471"
      y1="30.493868"
      x2="52.932968"
      y2="25.516842"
    >
      <stop offset="0" stop-color="#E39942" />
      <stop offset="1" stop-color="#ECB354" />
    </linearGradient>
  </defs>
  <path
    fill="url(#gradient_4)"
    d="M32.255 38.3221C32.2763 38.2412 32.27 38.2444 32.3233 38.1611C32.992 37.116 34.4355 37.4688 35.2666 36.6978C36.0613 35.9606 36.4827 34.8884 37.3353 34.1983C38.9637 32.8804 40.9693 31.7785 42.7627 30.6785C56.0347 22.5381 71.5002 17.2008 86.7097 14.1185L86.8103 14.6754C84.9202 16.6702 74.2161 20.6448 70.8491 22.2729C61.4701 26.8079 52.0448 31.3519 42.8112 36.1751C36.591 39.4241 30.5782 43.0855 24.1544 45.9411C23.7752 46.1097 23.4187 46.1746 23.0053 46.1955C23.0219 46.1742 23.0384 46.1527 23.0553 46.1316C23.9666 44.9971 26.3056 42.4016 27.7482 42.2301C29.4957 41.5702 31.3628 39.957 32.255 38.3221Z"
  />
  <path
    fill="white"
    d="M27.7482 42.2301C27.4023 41.8278 27.395 41.7539 27.4059 41.2236C28.1285 39.9787 29.5655 38.581 30.9473 38.1207C31.5517 37.9194 31.7222 38.0524 32.255 38.3221C31.3628 39.957 29.4957 41.5702 27.7482 42.2301Z"
  />
  <defs>
    <linearGradient
      id="gradient_5"
      gradientUnits="userSpaceOnUse"
      x1="117.3812"
      y1="53.704384"
      x2="70.563835"
      y2="64.963806"
    >
      <stop offset="0" stop-color="#E36103" />
      <stop offset="1" stop-color="#F0AE3B" />
    </linearGradient>
  </defs>
  <path
    fill="url(#gradient_5)"
    d="M112.018 28.3527C112.178 28.8771 112.166 29.3261 112.15 29.8655C112.093 31.7956 111.911 33.7784 111.984 35.7053C112.03 36.9169 112.306 38.1064 112.344 39.3139C112.826 41.1948 112.757 43.6365 112.811 45.5899C113.017 49.3724 112.987 53.1603 112.99 56.947L112.967 61.695C113.033 64.4173 112.77 67.1059 112.801 69.8123C112.866 75.3949 113.272 81.1745 112.709 86.7434C112.281 85.8234 111.909 84.8636 111.151 84.1617C109.954 82.0271 108.457 80.2145 106.427 78.8205C101.948 75.7447 97.1233 75.8297 92.0172 76.7788L91.9537 76.4372C90.9056 76.5468 90.149 77.3597 89.1106 77.4336C89.1107 76.194 88.696 74.3283 89.4198 73.3662C89.1048 73.4643 88.7454 73.4266 88.4178 73.4237C87.9253 73.1402 87.68 73.0441 87.4858 72.472C87.1689 71.5385 87.6025 70.6967 88.0111 69.8815C86.6053 69.4396 84.7833 69.0511 83.6295 68.1094C83.1312 67.7028 83.2197 67.3579 83.1614 66.7474C82.6131 66.4426 82.1515 66.163 81.7151 65.7085C80.3693 64.8181 79.2291 63.8642 78.0625 62.7541C76.9656 61.3216 76.0417 59.8587 75.2185 58.2547C74.9935 57.7055 74.8 57.1438 74.6389 56.5725C73.3768 52.041 74.1615 47.6074 76.4554 43.568C75.7738 43.4208 75.2439 42.7138 74.4657 42.5016C74.1823 42.7005 73.9799 42.7199 73.6387 42.7277C73.2269 42.0114 73.4426 41.2408 73.4966 40.4262C71.9119 40.0536 68.7197 41.7207 67.0206 42.0693C66.9939 42.0142 66.9677 41.9588 66.9379 41.9054C66.354 40.8561 64.9327 40.6036 63.8745 40.2846C62.9588 40.8666 61.3215 41.8704 60.2409 41.6803C61.8581 40.8049 63.483 39.8875 65.1968 39.2132C70.8594 36.9852 77.2491 35.7022 82.4369 32.3917C84.0031 31.4893 85.9962 31.1418 87.7571 30.8093C92.3622 31.3492 95.7344 31.3737 100.102 29.5992C100.908 29.2587 101.816 29.0685 102.661 28.838C105.729 28.5295 109.023 29.2032 112.018 28.3527Z"
  />
  <defs>
    <linearGradient
      id="gradient_6"
      gradientUnits="userSpaceOnUse"
      x1="89.040977"
      y1="48.087112"
      x2="97.278984"
      y2="61.083939"
    >
      <stop offset="0" stop-color="#B10803" />
      <stop offset="1" stop-color="#E44F17" />
    </linearGradient>
  </defs>
  <path
    fill="url(#gradient_6)"
    d="M76.4554 43.568C79.5684 39.7187 83.5278 37.1827 88.548 36.6582C92.9388 36.1995 97.6523 37.6212 101.068 40.4172C104.777 43.4524 105.926 47.1608 106.67 51.7038C105.825 51.9629 104.975 52.1993 104.18 52.5934C103.883 53.1574 104.092 53.6778 103.816 54.3401C103.154 55.9327 102.091 57.2151 101.917 59.0198C100.357 61.7334 98.1896 63.9144 95.0995 64.7408C92.3336 65.4805 88.7426 65.2435 85.9565 64.5862C85.1093 64.3863 84.1626 63.9511 83.3175 63.8529C82.9269 64.4105 82.3705 65.4881 81.7151 65.7085C80.3693 64.8181 79.2291 63.8642 78.0625 62.7541C76.9656 61.3216 76.0417 59.8587 75.2185 58.2547C74.9935 57.7055 74.8 57.1438 74.6389 56.5725C73.3768 52.041 74.1615 47.6074 76.4554 43.568Z"
  />
  <path
    fill="#9E1500"
    d="M76.4554 43.568C79.5684 39.7187 83.5278 37.1827 88.548 36.6582C92.9388 36.1995 97.6523 37.6212 101.068 40.4172C104.777 43.4524 105.926 47.1608 106.67 51.7038C105.825 51.9629 104.975 52.1993 104.18 52.5934C104.177 51.4805 104.088 50.3494 103.863 49.2584C103.254 46.3037 101.596 43.6941 99.0669 42.0344C98.4403 42.3259 97.4992 43.2387 96.8545 43.0256C96.6175 42.9473 96.3784 42.7837 96.1664 42.652C96.5043 43.1056 96.7891 43.4197 97.2749 43.7138L97.2235 44.0128C95.5466 44.9108 93.4191 45.6982 92.8267 47.6863C92.7305 48.0109 92.6474 48.3394 92.5778 48.6708C91.7339 48.9644 90.7174 48.6593 89.7437 49.0062C87.918 49.6567 83.8222 53.1006 82.022 54.3529C81.4974 54.7178 80.3828 55.7135 79.7783 55.709C79.6062 55.4512 79.4098 55.0505 79.1834 54.8501L78.8769 55.4246C78.6286 55.0192 78.4171 54.6575 78.2895 54.1966L77.7596 53.9683C77.2995 54.5425 77.3568 55.9015 77.3297 56.6247C78.5449 59.897 80.2969 62.0827 83.3175 63.8529C82.9269 64.4105 82.3705 65.4881 81.7151 65.7085C80.3693 64.8181 79.2291 63.8642 78.0625 62.7541C76.9656 61.3216 76.0417 59.8587 75.2185 58.2547C74.9935 57.7055 74.8 57.1438 74.6389 56.5725C73.3768 52.041 74.1615 47.6074 76.4554 43.568Z"
  />
  <path
    fill="#9E1500"
    d="M79.1834 54.8501C79.057 54.614 78.9605 54.3768 78.9003 54.1147C78.2815 51.418 79.1155 48.3679 80.5997 46.1C81.5444 44.6566 84.5821 41.1381 86.3259 40.799C86.6734 40.7314 87.1552 41.1768 87.456 41.3806C89.0153 41.4067 90.7124 40.7206 92.089 40.0372C93.4763 41.3575 94.7752 41.5719 96.1664 42.652C96.5043 43.1056 96.7891 43.4197 97.2749 43.7138L97.2235 44.0128C95.5466 44.9108 93.4191 45.6982 92.8267 47.6863C92.7305 48.0109 92.6474 48.3394 92.5778 48.6708C91.7339 48.9644 90.7174 48.6593 89.7437 49.0062C87.918 49.6567 83.8222 53.1006 82.022 54.3529C81.4974 54.7178 80.3828 55.7135 79.7783 55.709C79.6062 55.4512 79.4098 55.0505 79.1834 54.8501Z"
  />
  <path
    fill="#C02706"
    d="M77.3297 56.6247C77.0948 56.1928 76.9208 55.7457 76.79 55.2721C75.9504 52.2325 76.349 48.5524 77.9328 45.8207C79.6931 42.7845 82.763 40.7374 86.1144 39.8475C91.0533 38.5361 94.7765 39.546 99.0669 42.0344C98.4403 42.3259 97.4992 43.2387 96.8545 43.0256C96.6175 42.9473 96.3784 42.7837 96.1664 42.652C94.7752 41.5719 93.4763 41.3575 92.089 40.0372C90.7124 40.7206 89.0153 41.4067 87.456 41.3806C87.1552 41.1768 86.6734 40.7314 86.3259 40.799C84.5821 41.1381 81.5444 44.6566 80.5997 46.1C79.1155 48.3679 78.2815 51.418 78.9003 54.1147C78.9605 54.3768 79.057 54.614 79.1834 54.8501L78.8769 55.4246C78.6286 55.0192 78.4171 54.6575 78.2895 54.1966L77.7596 53.9683C77.2995 54.5425 77.3568 55.9015 77.3297 56.6247Z"
  />
  <path
    fill="#C5580B"
    d="M77.3297 56.6247C77.3568 55.9015 77.2995 54.5425 77.7596 53.9683L78.2895 54.1966C78.4171 54.6575 78.6286 55.0192 78.8769 55.4246C80.5875 58.8512 82.9827 61.6177 86.725 62.8881C90.2066 64.0701 93.0319 63.3401 96.2134 61.7573C97.4361 61.149 100.097 59.2088 100.785 58.9353C101.075 58.8199 101.634 58.9342 101.917 59.0198C100.357 61.7334 98.1896 63.9144 95.0995 64.7408C92.3336 65.4805 88.7426 65.2435 85.9565 64.5862C85.1093 64.3863 84.1626 63.9511 83.3175 63.8529C80.2969 62.0827 78.5449 59.897 77.3297 56.6247Z"
  />
  <path
    fill="#9E1500"
    d="M89.3486 50.8683C89.7002 50.534 90.2507 50.5291 90.6082 50.8572C90.9657 51.1852 91.008 51.7341 90.705 52.113C90.4899 52.3822 90.1426 52.509 89.8045 52.4419C89.4665 52.3747 89.1941 52.1247 89.0982 51.7937C89.0023 51.4627 89.0989 51.1058 89.3486 50.8683Z"
  />
  <path
    fill="#C02706"
    d="M106.67 51.7038C107.397 54.8096 105.978 58.5198 104.351 61.1173C103.578 62.3526 102.591 63.3941 101.564 64.4197C97.8714 67.4873 93.6579 68.475 88.9569 68.0474C86.9334 67.8634 85.0804 67.3945 83.1614 66.7474C82.6131 66.4426 82.1515 66.163 81.7151 65.7085C82.3705 65.4881 82.9269 64.4105 83.3175 63.8529C84.1626 63.9511 85.1093 64.3863 85.9565 64.5862C88.7426 65.2435 92.3336 65.4805 95.0995 64.7408C98.1896 63.9144 100.357 61.7334 101.917 59.0198C102.091 57.2151 103.154 55.9327 103.816 54.3401C104.092 53.6778 103.883 53.1574 104.18 52.5934C104.975 52.1993 105.825 51.9629 106.67 51.7038Z"
  />
  <path
    fill="#E4811C"
    d="M101.564 64.4197C101.633 65.0143 101.706 65.4372 102.039 65.9417L102.519 66.0837C102.065 66.4514 99.5544 68.0539 99.4983 68.4164C99.3823 69.165 99.7575 69.399 99.3309 70.1816C98.7401 70.6304 98.2091 70.8251 97.4594 70.7229C95.4077 70.4432 93.7181 69.2455 91.565 70.1151C90.4878 70.2393 89.012 70.3242 88.0111 69.8815C86.6053 69.4396 84.7833 69.0511 83.6295 68.1094C83.1312 67.7028 83.2197 67.3579 83.1614 66.7474C85.0804 67.3945 86.9334 67.8634 88.9569 68.0474C93.6579 68.475 97.8714 67.4873 101.564 64.4197Z"
  />
  <path
    fill="#C02706"
    d="M112.811 45.5899C111.518 45.4829 110.816 45.037 109.989 44.0503C109.16 43.0615 108.34 41.5437 108.501 40.2079C108.544 39.8458 108.766 39.3464 109.065 39.1248C110.419 38.1199 110.875 39.1166 112.213 39.2977C112.257 39.3036 112.301 39.3085 112.344 39.3139C112.826 41.1948 112.757 43.6365 112.811 45.5899Z"
  />
  <path
    fill="#ED9C3A"
    d="M88.0111 69.8815C89.012 70.3242 90.4878 70.2393 91.565 70.1151L92.3638 70.2435L92.3825 70.4192C91.6048 70.4381 90.7948 70.3727 90.1408 70.8566C89.76 71.6716 89.7867 72.5262 89.4198 73.3662C89.1048 73.4643 88.7454 73.4266 88.4178 73.4237C87.9253 73.1402 87.68 73.0441 87.4858 72.472C87.1689 71.5385 87.6025 70.6967 88.0111 69.8815Z"
  />
  <path
    fill="#C02706"
    d="M112.99 56.947L112.967 61.695C112.644 61.1698 112.21 60.7791 111.812 60.3162C111.305 59.726 111.144 59.2189 111.196 58.4572C111.541 57.6705 112.278 57.3515 112.99 56.947Z"
  />
  <path
    fill="#ED9C3A"
    d="M75.3543 40.1753C74.8647 40.8636 74.6909 41.6995 74.4657 42.5016C74.1823 42.7005 73.9799 42.7199 73.6387 42.7277C73.2269 42.0114 73.4426 41.2408 73.4966 40.4262L73.4938 40.2205L75.3543 40.1753Z"
  />
  <path
    fill="#E4811C"
    d="M73.4938 40.2205L73.555 39.2664C73.943 38.6904 74.012 38.5862 74.6415 38.3094L75.1551 38.5367C75.4544 39.1747 75.4032 39.4882 75.3543 40.1753L73.4938 40.2205Z"
  />
  <path
    fill="#C02706"
    d="M108.716 70.8084C109.057 70.8444 109.436 70.9003 109.727 71.0913C110.233 71.4229 110.754 72.0003 110.873 72.6038C111.049 73.5011 110.807 73.7892 110.363 74.5101C109.896 74.6228 109.484 74.6543 109.004 74.651C108.797 74.4971 108.458 74.3177 108.352 74.0861C107.883 73.0552 108.342 71.8001 108.716 70.8084Z"
  />
  <path
    fill="#C5580B"
    d="M102.442 32.5857C102.576 32.5835 102.71 32.5835 102.843 32.5963C103.41 32.6511 103.878 32.9114 104.224 33.3515C104.746 34.0143 104.687 34.9577 104.598 35.7481C104.354 35.7568 104.105 35.7614 103.864 35.7222C103.243 35.621 102.888 35.3705 102.516 34.8793C102.193 34.0787 102.32 33.4104 102.442 32.5857Z"
  />
  <path
    fill="#C02706"
    d="M108.81 62.7854C109.193 62.8646 109.544 63.0618 109.896 63.2288C110.317 63.9443 110.278 64.2985 110.298 65.1098C109.745 65.121 109.294 65.1131 108.77 64.9286C108.423 64.2026 108.682 63.5672 108.81 62.7854Z"
  />
  <defs>
    <linearGradient
      id="gradient_7"
      gradientUnits="userSpaceOnUse"
      x1="49.26609"
      y1="63.475182"
      x2="69.596436"
      y2="112.52091"
    >
      <stop offset="0" stop-color="#B00000" />
      <stop offset="1" stop-color="#F09627" />
    </linearGradient>
  </defs>
  <path
    fill="url(#gradient_7)"
    d="M38.4188 75.2064C38.4141 72.0681 39.2744 69.1094 41.0811 66.5253C43.6171 62.898 47.7799 60.5869 52.0982 59.8413C56.6419 59.0568 61.5285 60.2749 65.281 62.9311C68.8831 65.481 70.8934 69.1451 71.6294 73.4462C72.1377 75.5281 72.2011 78.0401 71.5378 80.1108C72.1875 81.3727 72.1063 83.0444 71.6897 84.3826C70.7059 87.5427 66.8233 90.4396 63.9887 91.8866C58.4664 94.7057 57.914 92.0866 55.6049 92.6202C55.0834 92.7407 54.7023 93.2218 54.3158 93.579C53.202 93.9219 52.5948 92.9473 51.3535 93.3137C55.1925 96.8689 58.8893 100.589 62.7987 104.065C64.8004 105.845 70.228 109.62 71.4925 111.434C70.763 112.172 70.333 112.372 69.3006 112.552C67.1105 110.327 63.8637 108.231 61.4106 106.102C56.4796 101.822 52.0416 97.0392 47.3145 92.5513C45.3546 90.6906 43.0566 89.2291 41.1923 87.2633C41.3353 86.9195 41.5104 86.4917 41.5032 86.1116C41.4853 85.1522 40.6874 83.5313 40.026 82.8521L39.9223 82.4245C39.47 81.5133 39.1301 80.6078 38.8174 79.6405C38.5141 78.2016 38.3247 76.6742 38.4188 75.2064Z"
  />
  <path
    fill="#9E1500"
    d="M38.4188 75.2064C38.4141 72.0681 39.2744 69.1094 41.0811 66.5253C43.6171 62.898 47.7799 60.5869 52.0982 59.8413C56.6419 59.0568 61.5285 60.2749 65.281 62.9311C68.8831 65.481 70.8934 69.1451 71.6294 73.4462C71.0239 73.7392 70.3826 74.0028 69.8828 74.4626L69.279 74.445C68.403 69.9694 67.3132 67.3463 63.3266 64.6511C60.8582 62.9823 57.2272 61.4575 54.1835 62.0616C50.1474 62.8627 44.9123 65.2533 42.6214 68.7284C40.4607 72.0059 40.5238 75.5158 41.315 79.2523C41.5141 80.1925 41.8004 81.1438 41.8188 82.1082C41.3571 82.5342 40.5179 82.4202 39.9223 82.4245C39.47 81.5133 39.1301 80.6078 38.8174 79.6405C38.5141 78.2016 38.3247 76.6742 38.4188 75.2064Z"
  />
  <path
    fill="#ED9C3A"
    d="M48.6734 90.5559C49.5775 90.9193 50.4348 91.4504 51.3573 91.7507C55.0748 92.9609 60.3291 91.9112 63.705 90.1366C67.6914 88.041 70.2407 84.3386 71.5378 80.1108C72.1875 81.3727 72.1063 83.0444 71.6897 84.3826C70.7059 87.5427 66.8233 90.4396 63.9887 91.8866C58.4664 94.7057 57.914 92.0866 55.6049 92.6202C55.0834 92.7407 54.7023 93.2218 54.3158 93.579C53.202 93.9219 52.5948 92.9473 51.3535 93.3137C50.3273 92.7364 49.4073 91.4579 48.6734 90.5559Z"
  />
  <path
    fill="#E4811C"
    d="M65.7521 82.4406C65.9703 82.5742 66.1745 82.766 66.3756 82.926C66.3566 83.2103 66.389 83.5379 66.2402 83.7828C64.753 86.2308 61.9922 88.0451 59.2358 88.7012C55.4981 89.5908 50.61 88.9785 47.3021 86.9168C46.2187 86.2415 44.3715 84.638 44.0712 83.3484L44.2558 83.1351C44.7394 84.6004 46.8501 86.1226 48.1453 86.9246L49.0517 87.3619L50.1169 86.9681C49.8369 85.8966 45.9541 84.1038 45.0405 82.8973C45.2218 82.8999 50.0624 86.8982 54.7234 87.0845C59.0196 87.2563 62.6951 85.268 65.7521 82.4406Z"
  />
  <path
    fill="#9E1500"
    d="M53.6056 75.0518C53.9663 74.8793 54.3933 74.9231 54.7115 75.1651C55.0298 75.4072 55.186 75.8069 55.1161 76.2007C55.0462 76.5944 54.762 76.916 54.3798 77.0337C53.8459 77.1982 53.2754 76.9229 53.0721 76.4024C52.8688 75.882 53.1015 75.2928 53.6056 75.0518Z"
  />
  <path
    fill="#9E1500"
    d="M55.3082 71.8112C55.5916 71.5035 56.0352 71.4024 56.4239 71.5568C56.8126 71.7112 57.066 72.0892 57.061 72.5074C57.0561 72.9256 56.794 73.2975 56.4017 73.4427C55.9639 73.6048 55.472 73.4457 55.2121 73.0578C54.9521 72.67 54.9919 72.1546 55.3082 71.8112Z"
  />
  <path
    fill="#C02706"
    d="M49.4809 81.3974C49.9496 81.1693 50.5146 81.357 50.7535 81.8203C50.9924 82.2835 50.8177 82.8528 50.3601 83.1023C50.0546 83.2689 49.6828 83.257 49.3885 83.0711C49.0943 82.8852 48.9238 82.5546 48.943 82.2071C48.9621 81.8596 49.168 81.5498 49.4809 81.3974Z"
  />
  <defs>
    <linearGradient
      id="gradient_8"
      gradientUnits="userSpaceOnUse"
      x1="91.378548"
      y1="79.819351"
      x2="105.67147"
      y2="104.8306"
    >
      <stop offset="0" stop-color="#A80000" />
      <stop offset="1" stop-color="#DC5113" />
    </linearGradient>
  </defs>
  <path
    fill="url(#gradient_8)"
    d="M92.0172 76.7788C97.1233 75.8297 101.948 75.7447 106.427 78.8205C108.457 80.2145 109.954 82.0271 111.151 84.1617C111.909 84.8636 112.281 85.8234 112.709 86.7434C113.288 92.0472 112.854 99.0222 112.023 104.301C111.888 103.134 111.683 101.924 111.749 100.749C107.61 104.912 103.053 108.12 96.8849 108.161C95.9078 108.168 94.9229 108.067 93.9515 107.968C92.4862 107.05 90.5594 107.302 88.7484 105.925L85.5621 103.842C84.5981 102.76 83.7279 101.661 82.8775 100.49C82.642 99.8558 82.2827 99.2973 81.9314 98.723C81.4306 97.3556 81.1051 96.0058 80.8053 94.5858C80.6621 93.2082 80.7166 91.7622 80.6861 90.3749C80.8655 88.8939 81.2686 87.3446 81.8327 85.9648C83.7578 81.2559 87.5051 78.6837 92.0172 76.7788Z"
  />
  <path
    fill="#9E1500"
    d="M92.0172 76.7788C97.1233 75.8297 101.948 75.7447 106.427 78.8205C108.457 80.2145 109.954 82.0271 111.151 84.1617C110.528 84.62 110.113 85.1359 109.323 85.0943C106.492 82.2882 103.781 78.8648 99.4257 78.9021C94.6786 78.9427 90.498 79.5378 87.0707 83.0981C84.4513 85.8192 82.9034 89.452 83.012 93.243C83.0577 94.8388 83.5282 97.1302 84.6115 98.3597C85.8805 100.852 87.9093 102.943 90.4943 104.09C89.7694 104.654 89.3821 105.341 88.7484 105.925L85.5621 103.842C84.5981 102.76 83.7279 101.661 82.8775 100.49C82.642 99.8558 82.2827 99.2973 81.9314 98.723C81.4306 97.3556 81.1051 96.0058 80.8053 94.5858C80.6621 93.2082 80.7166 91.7622 80.6861 90.3749C80.8655 88.8939 81.2686 87.3446 81.8327 85.9648C83.7578 81.2559 87.5051 78.6837 92.0172 76.7788Z"
  />
  <path
    fill="#E4811C"
    d="M84.6115 98.3597C85.4035 98.5213 85.4467 99.0455 86.3387 99.1296C86.7675 98.8035 86.7573 98.7552 86.847 98.2534C88.6225 100.303 90.5048 101.647 93.0486 102.596C93.0933 102.614 93.1379 102.632 93.1828 102.649C96.2449 103.8 100.32 102.84 103.188 101.542C103.481 101.41 103.767 101.275 104.078 101.194C105.206 100.899 105.971 99.9854 107.049 99.6688C106.705 100.351 105.982 100.981 105.803 101.687C103.765 103.958 100.81 104.848 97.8488 104.998C95.303 105.127 92.9485 104.702 90.4943 104.09C87.9093 102.943 85.8805 100.852 84.6115 98.3597Z"
  />
  <path
    fill="#C02706"
    d="M93.0486 102.596C94.2886 102.41 96.514 103.001 97.5339 102.447C100.47 100.852 102.619 98.1076 105.621 96.6413C106.381 96.27 106.753 96.2154 107.539 96.4848C107.875 96.8696 108.27 97.2702 108.467 97.7457C108.63 98.1408 108.223 98.802 108.057 99.205C107.382 100.079 106.724 101.058 105.803 101.687C105.982 100.981 106.705 100.351 107.049 99.6688C105.971 99.9854 105.206 100.899 104.078 101.194C103.767 101.275 103.481 101.41 103.188 101.542C100.32 102.84 96.2449 103.8 93.1828 102.649C93.1379 102.632 93.0933 102.614 93.0486 102.596Z"
  />
  <path
    fill="#C5580B"
    d="M103.188 101.542C103.327 100.669 102.971 99.378 102.934 98.4348C103.247 98.6209 103.616 98.7624 103.954 98.897C105.04 99.3289 105.831 99.4923 106.928 99.015C107.115 98.9338 107.826 99.1547 108.057 99.205C107.382 100.079 106.724 101.058 105.803 101.687C105.982 100.981 106.705 100.351 107.049 99.6688C105.971 99.9854 105.206 100.899 104.078 101.194C103.767 101.275 103.481 101.41 103.188 101.542Z"
  />
  <path
    fill="#9E1500"
    d="M97.3431 87.8289C97.6717 87.5836 98.1126 87.5507 98.4739 87.7447C98.8351 87.9386 99.0514 88.3243 99.0285 88.7337C99.0056 89.1431 98.7476 89.5022 98.3669 89.6546C97.8749 89.8516 97.3132 89.6532 97.054 89.191C96.7947 88.7287 96.9185 88.146 97.3431 87.8289Z"
  />
  <path
    fill="#9E1500"
    d="M95.6308 91.2962C96.1145 91.12 96.6515 91.353 96.8533 91.8266C97.055 92.3001 96.851 92.8488 96.3889 93.0755C96.0672 93.2333 95.6847 93.2006 95.3944 92.9905C95.1042 92.7804 94.9537 92.4272 95.0033 92.0723C95.0528 91.7174 95.2942 91.4189 95.6308 91.2962Z"
  />
  <defs>
    <linearGradient
      id="gradient_9"
      gradientUnits="userSpaceOnUse"
      x1="116.17884"
      y1="83.792236"
      x2="85.979156"
      y2="84.850525"
    >
      <stop offset="0" stop-color="#AA2C07" />
      <stop offset="1" stop-color="#DD4708" />
    </linearGradient>
  </defs>
  <path
    fill="url(#gradient_9)"
    d="M114.772 27.9098C114.729 29.2745 114.255 33.1918 114.929 34.1871C115.227 46.0571 115.751 57.9548 115.762 69.8279C115.767 74.9596 115.288 80.0804 115.153 85.2085C114.92 94.0483 114.936 134.074 110.111 139.305C109.584 139.876 108.984 140.05 108.224 140.059C102.24 140.132 92.1172 132.202 87.2795 128.817C87.2731 128.024 87.1735 127.695 87.6692 127.037C91.0127 126.441 94.529 131.953 97.8825 132.457C98.6294 131.549 98.9986 130.867 99.2623 129.713C99.6254 127.952 99.2303 126.126 99.5211 124.342C99.859 124.947 99.6426 125.725 99.7361 126.393C99.8247 127.026 100.052 127.276 100.533 127.627L100.94 127.356C101.367 126.336 100.793 125.35 100.978 124.307C101.24 124.572 101.265 125.454 101.326 125.85L101.562 125.926L101.866 125.439C102.482 124.97 103.449 124.988 104.198 124.908C104.554 126.751 105.075 128.671 104.743 130.549C105.126 130.271 105.208 130.111 105.699 130.199C106.975 130.428 108.46 131.305 109.651 131.854L109.914 132.429C110.55 130.453 110.452 127.597 110.628 125.483C111.212 118.452 111.877 111.355 112.023 104.301C112.854 99.0222 113.288 92.0472 112.709 86.7434C113.272 81.1745 112.866 75.3949 112.801 69.8123C112.77 67.1059 113.033 64.4173 112.967 61.695L112.99 56.947C112.987 53.1603 113.017 49.3724 112.811 45.5899C112.757 43.6365 112.826 41.1948 112.344 39.3139C112.306 38.1064 112.03 36.9169 111.984 35.7053C111.911 33.7784 112.093 31.7956 112.15 29.8655C112.166 29.3261 112.178 28.8771 112.018 28.3527C112.835 27.9258 113.868 27.9685 114.772 27.9098Z"
  />
  <path
    fill="#F0C484"
    d="M104.743 130.549C105.126 130.271 105.208 130.111 105.699 130.199C106.975 130.428 108.46 131.305 109.651 131.854L109.914 132.429C109.487 134.031 109.623 136.073 108.226 137.136C107.846 137.224 107.459 137.263 107.072 137.203C106.145 137.06 103.894 136.259 103.347 135.494C103.456 135.35 103.551 135.203 103.648 135.051C104.464 133.785 104.513 132.022 104.743 130.549Z"
  />
  <path
    fill="#C5580B"
    d="M99.2623 129.713C99.9923 129.654 100.213 129.815 100.84 130.152C101.35 130.838 101.485 132.25 101.361 133.085C101.3 133.497 101.036 133.823 100.77 134.129C100.272 134.254 100.068 134.288 99.5968 134.015C99.0079 133.674 98.3785 132.94 97.8825 132.457C98.6294 131.549 98.9986 130.867 99.2623 129.713Z"
  />
  <path
    fill="#C02706"
    d="M71.4925 111.434L71.8367 111.535C74.1862 113.496 76.1998 116.139 78.6777 117.872L78.9662 118.027C83.4319 115.017 87.2679 113.328 92.7908 114.42C95.6934 114.993 98.6029 116.366 100.693 118.493C102.296 120.438 103.556 122.436 104.198 124.908C103.449 124.988 102.482 124.97 101.866 125.439L101.562 125.926L101.326 125.85C101.265 125.454 101.24 124.572 100.978 124.307C100.793 125.35 101.367 126.336 100.94 127.356L100.533 127.627C100.052 127.276 99.8247 127.026 99.7361 126.393C99.6426 125.725 99.859 124.947 99.5211 124.342C99.2303 126.126 99.6254 127.952 99.2623 129.713C98.9986 130.867 98.6294 131.549 97.8825 132.457C94.529 131.953 91.0127 126.441 87.6692 127.037C87.1735 127.695 87.2731 128.024 87.2795 128.817C83.7359 125.977 79.3091 124.037 76.614 120.286C74.3356 117.536 71.8592 115.036 69.3006 112.552C70.333 112.372 70.763 112.172 71.4925 111.434Z"
  />
  <path
    fill="#9E1500"
    d="M92.0888 119.614C92.5055 119.378 93.0343 119.501 93.3027 119.899C93.571 120.296 93.4888 120.832 93.1137 121.131C92.8438 121.346 92.4761 121.391 92.162 121.248C91.848 121.105 91.6405 120.798 91.6251 120.454C91.6096 120.109 91.7887 119.785 92.0888 119.614Z"
  />
  <path
    fill="#EAAF59"
    d="M60.2409 41.6803C61.3215 41.8704 62.9588 40.8666 63.8745 40.2846C64.9327 40.6036 66.354 40.8561 66.9379 41.9054C66.9677 41.9588 66.9939 42.0142 67.0206 42.0693C66.0838 42.311 58.6341 46.8763 57.9347 47.6402L58.0571 47.9565C58.9696 47.9533 60.1245 47.9266 60.8015 48.6364C61.3913 49.2548 61.5721 50.1877 61.5267 51.0156C61.4628 52.1804 60.9572 53.6552 60.045 54.4325C59.4542 54.9358 59.1149 54.9474 58.3851 54.9584C57.6947 54.605 57.1656 54.2534 56.9289 53.4759C56.6153 52.4461 56.6847 51.1481 56.6572 50.0713C55.9573 51.0495 55.2366 52.199 54.3386 53.0002C50.5632 56.369 45.186 55.4841 42.0189 59.898C41.0101 61.304 40.4718 63.0416 39.7187 64.5991C39.417 65.2783 39.1688 65.8149 38.611 66.3318C37.8772 66.3274 36.4145 67.4946 35.8602 68.014C35.6753 68.1873 35.5286 68.4065 35.3983 68.6225L35.4033 68.9649C35.1322 69.4631 35.048 69.863 34.4885 70.0524C32.8066 68.8793 31.7226 67.0289 30.1706 65.7067C30.7039 64.7862 30.7937 63.273 30.9846 62.216C35.8584 60.5497 37.2094 58.4739 39.4718 54.0342C40.1992 53.4991 40.9032 52.9286 41.6135 52.3708C44.8104 51.0194 48.794 50.6553 51.6873 48.7691C55.5267 46.266 53.937 44.3915 60.2409 41.6803Z"
  />
  <path
    fill="#ED9C3A"
    d="M38.611 66.3318C37.6976 65.4882 36.7021 64.9551 35.7167 64.2281C36.0492 63.8749 36.2149 63.831 36.6766 63.7269C37.9594 63.4375 38.6752 63.9344 39.7187 64.5991C39.417 65.2783 39.1688 65.8149 38.611 66.3318Z"
  />
  <path
    fill="#F4DCAB"
    d="M51.3535 93.3137C52.5948 92.9473 53.202 93.9219 54.3158 93.579C55.7579 93.7038 60.2443 93.1924 61.1644 94.0839C61.1817 94.1007 61.1943 94.1216 61.2092 94.1405L61.3119 93.9177L61.4444 94.6013L61.4477 94.5831C61.2034 94.7073 60.8955 94.9154 60.6245 94.9484C61.9811 95.9767 65.3019 97.0034 65.5558 97.261C65.841 97.5501 65.8128 97.8589 65.8662 98.2449L65.5508 98.9458C66.7812 99.1988 73.2127 104.291 73.8956 105.371C73.9121 105.397 73.9269 105.424 73.9426 105.451L73.7369 105.621C74.089 105.931 74.4779 106.355 74.8797 106.587C76.7569 107.043 79.8701 111.401 81.6905 112.752C80.6001 112.964 79.0353 113.078 78.3769 114.078C77.9942 114.66 78.116 116.324 78.3124 116.994C78.3693 117.188 78.4684 117.334 78.5831 117.496C78.6874 117.644 78.6871 117.698 78.6777 117.872C76.1998 116.139 74.1862 113.496 71.8367 111.535L71.4925 111.434C70.228 109.62 64.8004 105.845 62.7987 104.065C58.8893 100.589 55.1925 96.8689 51.3535 93.3137Z"
  />
  <path
    fill="#EAAF59"
    d="M60.6245 94.9484C61.9811 95.9767 65.3019 97.0034 65.5558 97.261C65.841 97.5501 65.8128 97.8589 65.8662 98.2449L65.5508 98.9458C63.8521 99.2295 62.5233 98.9985 61.0294 98.1313C60.3821 97.7555 60.0248 97.2918 59.8314 96.5739C59.9495 95.7007 60.0317 95.6101 60.6245 94.9484Z"
  />
  <path
    fill="#EAAF59"
    d="M72.3658 110.746C72.4416 109.785 72.4727 108.823 72.5459 107.864C72.6256 106.82 72.9636 106.288 73.7369 105.621C74.089 105.931 74.4779 106.355 74.8797 106.587C75.0499 107.804 75.1178 109.26 74.2858 110.284C74.0005 110.635 73.5871 110.919 73.1363 110.942C72.8425 110.957 72.6297 110.865 72.3658 110.746Z"
  />
  <path
    fill="#E4811C"
    d="M111.749 100.749C111.683 101.924 111.888 103.134 112.023 104.301C111.877 111.355 111.212 118.452 110.628 125.483C110.452 127.597 110.55 130.453 109.914 132.429L109.651 131.854C108.46 131.305 106.975 130.428 105.699 130.199C105.208 130.111 105.126 130.271 104.743 130.549C105.075 128.671 104.554 126.751 104.198 124.908C103.556 122.436 102.296 120.438 100.693 118.493C104.875 119.317 103.387 122.666 105.672 124.174C106.235 123.112 106.669 109.759 106.718 107.673C103.183 109.313 98.1661 110.717 94.3393 109.528C93.4972 108.477 90.5872 108.085 89.2702 107.416C89.8576 106.811 92.7759 108.567 93.9515 107.968C94.9229 108.067 95.9078 108.168 96.8849 108.161C103.053 108.12 107.61 104.912 111.749 100.749Z"
  />
  <path
    fill="#ED9C3A"
    d="M75.2185 58.2547C76.0417 59.8587 76.9656 61.3216 78.0625 62.7541C77.2655 63.0514 76.3595 63.4747 75.5153 63.5836C74.9882 63.6516 74.4016 63.5467 73.9898 63.2002C73.609 62.8797 73.4363 62.4948 73.4114 61.99C73.3268 60.2758 74.1407 59.4496 75.2185 58.2547Z"
  />
  <path
    fill="#ED9C3A"
    d="M80.8053 94.5858C80.282 94.7478 79.7746 94.8346 79.232 94.9061C78.8754 94.8245 78.643 94.6811 78.4074 94.397C77.7892 93.6515 77.1352 92.5721 77.2608 91.5696C77.3561 90.8082 77.6611 90.5131 78.2199 90.077C79.0981 89.8848 79.8439 90.1425 80.6861 90.3749C80.7166 91.7622 80.6621 93.2082 80.8053 94.5858Z"
  />
  <path
    fill="#ED9C3A"
    d="M85.5621 103.842L88.7484 105.925C90.5594 107.302 92.4862 107.05 93.9515 107.968C92.7759 108.567 89.8576 106.811 89.2702 107.416C90.5872 108.085 93.4972 108.477 94.3393 109.528C92.0598 109.141 88.6452 108.124 86.9257 106.618C85.9726 105.783 85.64 105.103 85.5621 103.842Z"
  />
  <path
    fill="#ED9C3A"
    d="M81.9314 98.723C82.2827 99.2973 82.642 99.8558 82.8775 100.49C82.1326 100.945 81.8598 101.853 81.0036 102.103C80.7503 102.007 80.4801 101.901 80.2558 101.747C79.8225 101.451 79.5926 101.048 79.5082 100.539C79.4627 100.264 79.6115 99.7702 79.7801 99.5521C80.3079 98.8695 81.1279 98.8521 81.9314 98.723Z"
  />
  <path
    fill="#ED9C3A"
    d="M75.1002 74.6135C75.1633 74.6127 75.2265 74.6115 75.2897 74.6128C76.1233 74.6306 76.7055 74.9237 77.2705 75.5233C77.4265 75.8492 77.5514 76.1602 77.521 76.5291C77.4075 77.9065 76.5918 78.5704 75.6201 79.4112C75.0818 79.6334 74.7465 79.7094 74.1685 79.6161C73.7221 79.2334 73.4921 79.0177 73.4656 78.3871C73.4042 76.9256 74.1392 75.6366 75.1002 74.6135Z"
  />
  <path
    fill="#ED9C3A"
    d="M65.2548 53.3771C65.5568 53.5132 65.8408 53.6731 66.058 53.9303C66.9664 55.0056 67.3845 56.1689 67.3113 57.5606C66.8772 58.2446 66.63 58.2514 65.8918 58.5122C65.2533 58.3697 64.5796 58.0563 64.1268 57.5793C63.7212 57.1521 63.5313 56.6822 63.5584 56.0911C63.6163 54.8278 64.3712 54.1459 65.2548 53.3771Z"
  />
  <path
    fill="#EAAF59"
    d="M71.0298 91.1647C71.141 91.1703 71.2505 91.1813 71.3604 91.1991C72.1457 91.3262 73.1478 91.6261 73.6289 92.3221C73.9539 92.7924 73.8601 92.9619 73.7521 93.4827C73.0053 94.1014 72.5022 94.1012 71.5602 94.2765C70.6829 94.419 70.324 94.6478 69.4681 94.3C69.3403 94.0374 69.1578 93.7946 69.2067 93.4998C69.3835 92.4341 70.2107 91.7626 71.0298 91.1647Z"
  />
  <path
    fill="#ED9C3A"
    d="M80.1593 67.8152C80.5148 67.8715 80.91 67.9289 81.2473 68.0602C81.6532 68.2183 82.0189 68.6361 82.1895 69.0297C82.5849 69.9424 82.2681 70.9016 81.9523 71.7774C81.8621 71.8094 81.8472 71.8169 81.7398 71.8418C81.0988 71.9905 80.9055 72.0029 80.3632 71.6694C79.6981 70.5228 80.0209 69.0715 80.1593 67.8152Z"
  />
  <path
    fill="#EAAF59"
    d="M69.8563 98.1133C70.2876 98.1626 70.8191 98.2032 71.2015 98.4128C71.6941 98.6829 72.1545 99.1759 72.3161 99.7207C72.5263 100.429 72.4107 100.959 72.0844 101.602C71.9996 101.588 71.9178 101.574 71.8346 101.553C71.11 101.371 70.1507 100.754 69.7897 100.095C69.3731 99.3357 69.6119 98.8581 69.8563 98.1133Z"
  />
  <path
    fill="#ED9C3A"
    d="M70.2249 46.613C70.6784 46.6743 71.1726 46.7373 71.5638 46.9906C72.4206 47.5454 72.6739 48.4934 72.8944 49.424C72.8697 49.4215 72.845 49.4194 72.8204 49.4164C72.0021 49.318 71.0716 49.0633 70.5523 48.3763C70.134 47.8229 70.1505 47.2719 70.2249 46.613Z"
  />
  <path
    fill="#EAAF59"
    d="M74.5908 86.803C75.1996 87.0421 75.3459 87.1063 75.7369 87.6322C75.7663 88.3664 75.3243 88.8058 74.8898 89.3419C74.3939 89.2202 74.1807 89.0833 73.8486 88.6962C73.7227 87.9638 74.2124 87.3869 74.5908 86.803Z"
  />
  <path
    fill="#ED9C3A"
    d="M74.1598 70.3176C74.7588 70.377 75.0278 70.4958 75.4761 70.8975C75.8651 71.5641 75.8112 72.1999 75.7942 72.9423C75.2705 72.7615 74.8425 72.5104 74.3775 72.2119C73.956 71.5624 74.0629 71.0416 74.1598 70.3176Z"
  />
  <path
    fill="#C5580B"
    d="M24.256 69.403C26.1102 67.8458 28.0215 66.7862 30.1706 65.7067C31.7226 67.0289 32.8066 68.8793 34.4885 70.0524C35.048 69.863 35.1322 69.4631 35.4033 68.9649C35.3048 69.6381 35.2457 70.3528 35.0136 70.9944C36.0038 71.2711 37.5848 73.3262 38.078 74.2281C38.2528 74.5478 38.2876 74.9226 38.2676 75.2812L38.4188 75.2064C38.3247 76.6742 38.5141 78.2016 38.8174 79.6405C39.1301 80.6078 39.47 81.5133 39.9223 82.4245L40.026 82.8521C40.6874 83.5313 41.4853 85.1522 41.5032 86.1116C41.5104 86.4917 41.3353 86.9195 41.1923 87.2633C39.2654 85.8758 37.393 84.4411 35.6163 82.8636C32.9291 80.4777 24.3454 71.4005 21.81 70.5538C22.2342 70.2221 22.7073 69.9336 23.1543 69.6323L24.256 69.403Z"
  />
  <path
    fill="#F0C484"
    d="M24.256 69.403C26.1102 67.8458 28.0215 66.7862 30.1706 65.7067C31.7226 67.0289 32.8066 68.8793 34.4885 70.0524C35.048 69.863 35.1322 69.4631 35.4033 68.9649C35.3048 69.6381 35.2457 70.3528 35.0136 70.9944C34.3868 72.913 33.1551 74.5178 32.205 76.2793C29.3948 74.166 27.2551 71.3758 24.256 69.403Z"
  />
  <path
    fill="#ED9C3A"
    d="M30.8765 68.8711C31.2912 68.8996 31.6973 68.9801 32.106 69.0527C32.3972 69.3576 32.6272 69.5308 32.7421 69.9466C33.0488 71.057 32.4033 72.1897 31.8608 73.1155C31.3592 73.1321 31.2881 73.0942 30.8909 72.8291C30.371 71.5351 30.489 70.1839 30.8765 68.8711Z"
  />
  <path
    fill="#F4DCAB"
    d="M35.0136 70.9944C36.0038 71.2711 37.5848 73.3262 38.078 74.2281C38.2528 74.5478 38.2876 74.9226 38.2676 75.2812L38.4188 75.2064C38.3247 76.6742 38.5141 78.2016 38.8174 79.6405C39.1301 80.6078 39.47 81.5133 39.9223 82.4245L40.026 82.8521C39.9332 82.8638 39.8339 82.865 39.7405 82.8598C38.5545 82.7942 33.2588 77.3384 32.205 76.2793C33.1551 74.5178 34.3868 72.913 35.0136 70.9944Z"
  />
  <path
    fill="#F0C484"
    d="M38.2676 75.2812L38.4188 75.2064C38.3247 76.6742 38.5141 78.2016 38.8174 79.6405C38.6359 79.5565 38.4561 79.4687 38.2782 79.3772C37.4662 78.9591 36.6629 78.2355 36.4108 77.3226C36.2472 76.7301 36.4618 76.2415 36.7622 75.7409C37.253 75.5006 37.7344 75.3912 38.2676 75.2812Z"
  />
</svg>
